ply
format ascii 1.0
comment VCGLIB generated
element vertex 39
property float x
property float y
property float z
element face 34
property list uchar int vertex_indices
end_header
0.737129 0.199671 0 
0 0.660376 0 
-0.737129 0.199671 0 
0 0.015388 0 
2 0.5 2 
3 3 3 
2 -0.5 -2 
-2 0.5 2 
-3 3 3 
-2 -0.5 -2 
2.01 0.5 2 
2.01 -0.5 -2 
3.01 3 3 
-1.99 0.5 2 
-1.99 -0.5 -2 
-2.99 3 3 
0 0.625 2 
0 1.25 0 
-2 0 0 
2 0 0 
0 1e-06 -8 
0 -0.5 -0 
0 -0 1.5 
-9 0.249999 5 
-2.5 -0.5 -1.5 
-4 0.5 -2 
9 0.249999 5 
2.5 -0.5 -1.5 
4 0.5 -2 
0 0.6212 1.9835 
-1.98 0.00245 0.0035 
0 1.23995 0.0035 
1.98 0.00245 0.0035 
0 -0.49255 0.0035 
0 0.00245 1.4885 
0 0.656222 0.0035 
0.729758 0.200124 0.0035 
-0.729758 0.200124 0.0035 
0 0.017684 0.0035 
3 0 1 2 
3 0 2 3 
3 16 17 18 
3 19 17 16 
3 17 19 20 
3 20 18 17 
3 21 19 22 
3 21 22 18 
3 20 21 18 
3 21 20 19 
3 23 24 18 
3 23 25 24 
3 25 23 18 
3 25 18 24 
3 26 19 27 
3 26 27 28 
3 28 19 26 
3 28 27 19 
3 29 30 31 
3 32 29 31 
3 33 34 32 
3 33 30 34 
3 35 36 32 
3 35 32 31 
3 37 35 31 
3 37 31 30 
3 36 38 33 
3 36 33 32 
3 38 37 30 
3 38 30 33 
3 4 5 6 
3 7 8 9 
3 10 11 12 
3 13 14 15 
