ply
format ascii 1.0
comment VCGLIB generated
element vertex 123
property float x
property float y
property float z
element face 178
property list uchar int vertex_indices
end_header
-0.157674 0.658789 0.636509 
0.157282 1.19168 -0.64882 
-0.157674 1.19168 -0.64882 
0.157282 0.658789 0.63651 
0.354133 0.7358 -0.273302 
-0.354524 0.7358 -0.273302 
-1.22067 0.477053 -0.584587 
-0.866336 0.089177 -0.448857 
-1.88996 -0.0307165 -0.482857 
-0.630116 0.4804 -0.506169 
-0.354524 0.00868859 -0.484527 
-0.000195773 0.11069 -0.844209 
-0.000195815 0.244741 -0.495345 
0.629724 0.4804 -0.506169 
-0.000195811 0.75586 -0.518657 
-0.000195624 0.804545 -2.0578 
-0.354524 0.727271 -0.280933 
-0.157282 0.687595 0.588189 
0.157677 0.687601 0.587795 
0.000197441 0.687598 3.18898 
-0.275391 0.517739 2.05394 
-0.157283 0.321096 2.06269 
-0.354133 0.0121655 0.460955 
-0.550983 0.167731 0.414467 
-0.866335 1.4049 -1.84841 
-1.22027 0.167731 0.414467 
-0.865944 0.237261 1.9486 
0.354133 0.0086955 -0.484921 
0.865944 0.089177 -0.448856 
1.22027 0.47706 -0.58498 
0.865944 1.40491 -1.8488 
0.550985 0.167731 0.414467 
0.866338 0.237268 1.94821 
1.22067 0.167731 0.414467 
0.354527 0.0121655 0.460955 
-0.078541 0.16012 1.99135 
0.0789372 0.16012 1.99135 
0.157676 0.321096 2.06269 
0.275787 0.517739 2.05394 
0.354133 0.727271 -0.280933 
0.157282 1.22255 -0.658122 
-0.157674 1.22255 -0.658122 
1.88957 -0.0307096 -0.48325 
0.846655 -0.240109 0.117496 
1.20098 -0.161432 1.84828 
1.51555 -0.240109 0.117496 
1.20059 -0.643821 -0.10065 
1.20059 -0.3005 -1.2196 
1.12185 0.173013 -0.334768 
1.23996 -0.220274 -0.316868 
1.12185 -0.220274 -0.316868 
1.23996 0.173013 -0.334768 
1.23996 0.190914 0.0585201 
1.23996 -0.191557 0.312473 
1.12185 -0.191557 0.312473 
1.12185 0.190914 0.0585201 
0.839568 -0.0834101 -1.2717 
1.36988 0.0463139 -0.945355 
1.06595 -0.450375 -1.94557 
1.36791 -0.0698241 -0.924162 
1.49232 -0.406907 -1.66287 
1.4935 -0.329482 -1.67687 
0.845866 -0.09343 -1.28408 
1.37894 -0.0812873 -0.944052 
1.06476 -0.45752 -1.94215 
1.35413 -0.152573 -0.898446 
1.50098 -0.495096 -1.66363 
1.50256 -0.417671 -1.67763 
1.35768 0.0308721 -0.962951 
1.80413 0.130054 -0.153211 
1.49705 -0.342761 -1.68301 
1.33996 0.425713 -0.553593 
0.901772 0.303041 -0.832956 
1.33366 0.0773056 -0.49041 
1.35413 -0.162688 -0.927762 
1.02618 -0.0772801 -1.14992 
1.49429 -0.498002 -1.65502 
1.09232 -0.458329 -1.91854 
1.37343 -0.52054 -2.23267 
1.60768 -0.519131 -2.20075 
1.76791 -0.457576 -1.62517 
1.89075 -0.636746 -1.9386 
1.7624 -0.742832 -3.63325 
-1.51594 -0.239722 0.117897 
-1.20059 -0.161432 1.84828 
-0.846652 -0.239722 0.117897 
-1.20098 -0.643828 -0.100256 
-1.20098 -0.3005 -1.2196 
-1.24035 0.173006 -0.334375 
-1.12224 -0.220281 -0.316475 
-1.24035 -0.220281 -0.316475 
-1.12224 0.173006 -0.334375 
-1.12224 0.190907 0.0589135 
-1.12224 -0.191557 0.312473 
-1.24035 0.190907 0.0589135 
-1.24035 -0.191557 0.312473 
-1.50295 -0.417284 -1.67723 
-1.37894 -0.0812942 -0.943658 
-0.845863 -0.0934369 -1.28369 
-1.35453 -0.152972 -0.89806 
-1.06476 -0.45752 -1.94215 
-1.50138 -0.494709 -1.66323 
-1.49389 -0.329489 -1.67648 
-1.37027 0.046307 -0.944961 
-0.839565 -0.083417 -1.27131 
-1.36791 -0.0698241 -0.924163 
-1.06634 -0.450382 -1.94518 
-1.49232 -0.406914 -1.66248 
-1.80452 0.130047 -0.152818 
-1.49704 -0.342768 -1.68262 
-1.76791 -0.457583 -1.62478 
-1.35807 0.0308721 -0.962952 
-1.33996 0.425713 -0.553593 
-1.33366 0.0772987 -0.490016 
-1.35453 -0.162688 -0.927762 
-1.49429 -0.498009 -1.65463 
-1.89114 -0.636746 -1.9386 
-1.37382 -0.520547 -2.23228 
-1.76279 -0.742839 -3.63285 
-1.60767 -0.519131 -2.20075 
-1.09271 -0.458329 -1.91854 
-1.02618 -0.077287 -1.14953 
-0.90177 0.303041 -0.832956 
3 0 1 2 
3 0 3 1 
3 3 4 1 
3 0 2 5 
3 6 7 8 
3 9 7 6 
3 9 10 7 
3 9 11 10 
3 9 12 11 
3 9 13 12 
3 13 9 14 
3 9 15 14 
3 9 16 15 
3 17 16 9 
3 16 17 18 
3 17 19 18 
3 20 19 17 
3 19 20 21 
3 21 20 9 
3 9 20 17 
3 21 9 22 
3 9 23 22 
3 23 9 24 
3 6 24 9 
3 25 24 6 
3 26 24 25 
3 26 23 24 
3 25 23 26 
3 25 7 23 
3 8 7 25 
3 8 25 6 
3 7 22 23 
3 7 10 22 
3 10 27 22 
3 10 11 27 
3 13 27 11 
3 13 28 27 
3 13 29 28 
3 13 30 29 
3 31 30 13 
3 32 30 31 
3 32 33 30 
3 31 33 32 
3 31 28 33 
3 34 28 31 
3 27 28 34 
3 22 27 34 
3 22 34 35 
3 35 34 36 
3 37 36 34 
3 37 35 36 
3 35 37 21 
3 21 37 19 
3 19 37 38 
3 37 13 38 
3 37 34 13 
3 34 31 13 
3 18 38 13 
3 19 38 18 
3 18 13 39 
3 15 39 13 
3 39 15 40 
3 41 40 15 
3 40 41 16 
3 16 41 15 
3 40 16 39 
3 16 18 39 
3 15 13 14 
3 21 22 35 
3 28 42 33 
3 29 42 28 
3 29 33 42 
3 33 29 30 
3 12 13 11 
3 43 44 45 
3 43 46 44 
3 43 47 46 
3 43 45 47 
3 45 46 47 
3 44 46 45 
3 48 49 50 
3 49 48 51 
3 52 49 51 
3 53 49 52 
3 52 54 53 
3 54 52 55 
3 54 55 48 
3 54 48 50 
3 56 57 58 
3 57 56 59 
3 56 60 59 
3 56 58 60 
3 61 60 58 
3 58 57 61 
3 62 63 64 
3 63 62 65 
3 62 66 65 
3 62 64 66 
3 67 66 64 
3 64 63 67 
3 68 69 70 
3 69 68 71 
3 72 71 68 
3 71 72 73 
3 72 74 73 
3 72 75 74 
3 72 68 75 
3 68 74 75 
3 74 68 70 
3 74 70 76 
3 70 77 76 
3 77 70 78 
3 78 70 79 
3 70 80 79 
3 70 69 80 
3 74 80 69 
3 74 76 80 
3 76 81 80 
3 78 81 76 
3 78 82 81 
3 78 79 82 
3 79 81 82 
3 79 80 81 
3 77 78 76 
3 73 74 69 
3 71 73 69 
3 83 84 85 
3 84 83 86 
3 83 87 86 
3 83 85 87 
3 85 86 87 
3 86 85 84 
3 88 89 90 
3 89 88 91 
3 92 89 91 
3 93 89 92 
3 94 93 92 
3 93 94 95 
3 95 94 88 
3 95 88 90 
3 96 97 98 
3 97 99 98 
3 99 100 98 
3 101 100 99 
3 96 100 101 
3 96 98 100 
3 102 103 104 
3 103 105 104 
3 105 106 104 
3 107 106 105 
3 102 106 107 
3 102 104 106 
3 108 109 110 
3 108 111 109 
3 108 112 111 
3 112 108 113 
3 108 114 113 
3 108 110 114 
3 110 115 114 
3 116 115 110 
3 116 117 115 
3 116 118 117 
3 116 119 118 
3 116 110 119 
3 110 109 119 
3 119 109 117 
3 109 120 117 
3 109 115 120 
3 111 115 109 
3 114 115 111 
3 111 121 114 
3 122 121 111 
3 114 121 122 
3 114 122 113 
3 112 113 122 
3 111 112 122 
3 115 117 120 
3 118 119 117 
