ply
format ascii 1.0
comment VCGLIB generated
element vertex 12
property float x
property float y
property float z
element face 20
property list uchar int vertex_indices
end_header
141.1952 225.4219 35.52876 
-102.4081 230.3587 80.23871 
-5.316861 324.8201 9.96765 
16.42535 234.8537 148.924 
117.8078 109.6894 98.24171 
131.2616 92.68446 -54.39481 
-8.636073 3.005936 -1.83378 
-31.99682 88.55141 -117.4063 
-22.41936 93.21468 140.0296 
-122.7576 96.94234 25.47173 
33.67968 233.208 -134.7783 
-137.6 209.499 -55.79702 
3 1 8 3 
3 5 7 10 
3 10 2 0 
3 4 3 8 
3 2 11 1 
3 11 10 7 
3 0 4 5 
3 9 1 11 
3 3 0 2 
3 6 5 4 
3 3 2 1 
3 8 1 9 
3 3 4 0 
3 7 5 6 
3 8 6 4 
3 8 9 6 
3 7 6 9 
3 10 0 5 
3 10 11 2 
3 7 9 11 
