ply
format ascii 1.0
comment VCGLIB generated
element vertex 65
property float x
property float y
property float z
element face 56
property list uchar int vertex_indices
end_header
-21.1572 -12.6143 -9.0737 
21.1572 -12.6143 -9.04001 
-8.07353 11.5018 73.3006 
8.07354 11.5018 73.3006 
-16.8484 5.42973 5.37896 
16.8484 5.42973 5.37896 
-15.6799 3.64369 -69.7306 
-15.6799 3.64369 -69.7306 
15.6799 3.64369 -69.7306 
15.6799 3.64369 -69.7306 
-19.6173 1.80517 -109.304 
19.6173 1.80517 -109.304 
1e-06 -10.0119 108.759 
5.00849 1.53462 88.3617 
5.00849 1.53462 88.3617 
-5.00848 1.53462 88.3617 
-5.00848 1.53462 88.3617 
1e-06 -9.9497 83.4567 
1e-06 -9.9497 83.4567 
1e-06 -25.3482 -16.3195 
1e-06 -9.20706 -69.7306 
1e-06 -9.20706 -69.7306 
5.52942 -10.1167 65.1484 
5.52942 -10.1167 65.1484 
-5.52942 -10.1167 65.1484 
-5.52942 -10.1167 65.1484 
9.02349 6.26325 54.4545 
9.02349 6.26325 54.4545 
-9.02349 6.26325 54.4545 
-9.02349 6.26325 54.4545 
1e-06 -12.3527 24.951 
-12.0449 -11.3462 -21.4678 
-11.9634 3.83638 3.52932 
-11.9634 3.83638 3.52932 
-141.585 5.47101 17.7887 
-141.585 5.47101 17.7887 
-11.9637 0.000817749 -68.2482 
-11.9637 0.000817749 -68.2482 
-75.7761 5.41359 3.9066 
-75.7761 5.41359 3.9066 
-75.7761 5.41359 3.9066 
-124.171 1.33724 -41.8733 
-124.171 1.33724 -41.8733 
-124.171 1.33724 -41.8733 
-141.708 5.09012 17.6858 
-26.5992 -0.0618071 -65.7942 
-267.274 0.0302494 -79.8608 
-121.754 -0.0193193 -61.0325 
12.0597 -11.3492 -21.4672 
11.9551 3.83629 3.52854 
11.9551 3.83629 3.52854 
141.586 5.45987 17.7878 
141.586 5.45987 17.7878 
11.9551 -0.006145 -68.2486 
11.9551 -0.006145 -68.2486 
75.7771 5.40743 3.90567 
75.7771 5.40743 3.90567 
75.7771 5.40743 3.90567 
124.172 1.32205 -41.8738 
124.172 1.32205 -41.8738 
124.172 1.32205 -41.8738 
141.709 5.07896 17.6849 
26.5996 -0.0699391 -65.7946 
267.274 -0.00227928 -79.8613 
121.754 -0.036109 -61.0329 
3 29 30 25 
3 30 29 0 
3 4 0 29 
3 0 4 6 
3 5 6 4 
3 6 5 8 
3 1 8 5 
3 8 1 21 
3 19 21 1 
3 21 19 0 
3 30 0 19 
3 2 28 24 
3 28 2 3 
3 14 3 2 
3 3 14 22 
3 18 22 14 
3 22 18 24 
3 16 24 18 
3 24 16 2 
3 14 2 16 
3 30 23 25 
3 23 30 27 
3 1 27 30 
3 27 1 5 
3 10 20 7 
3 20 10 11 
3 9 11 10 
3 11 9 20 
3 12 13 15 
3 13 12 17 
3 15 17 12 
3 26 3 22 
3 3 26 28 
3 27 4 29 
3 4 27 5 
3 19 1 30 
3 21 0 6 
3 10 7 9 
3 31 43 37 
3 43 31 35 
3 40 35 31 
3 47 44 45 
3 44 47 46 
3 36 38 32 
3 38 36 42 
3 33 40 31 
3 41 34 39 
3 64 61 63 
3 61 64 62 
3 53 56 60 
3 56 53 49 
3 58 48 54 
3 48 58 51 
3 48 55 50 
3 55 48 51 
3 59 57 52 
