ply
format ascii 1.0
comment VCGLIB generated
element vertex 70
property float x
property float y
property float z
element face 122
property list uchar int vertex_indices
end_header
3.54314 2.87402 -8.34645 
4.40971 2.2441 -8.38576 
0.86614 1.1811 -7.12626 
5.59052 2.04724 -1.49613 
4.40971 0.511811 -8.38576 
5.66908 1.10236 -0.433072 
4.72444 2.99213 2.5982 
3.54308 3.46457 -1.41735 
1.45652 4.13386 1.02333 
2.04713 2.91339 -8.30711 
0.433232 2.08662 -9.80321 
-0.905526 1.1811 -7.12608 
3.54337 -0.118109 -8.3857 
-3.54302 -0.118109 -8.38583 
0 0 -0 
-3.89772 0 3.55271e-15 
-3.26782 1.10236 2.59818 
3.89772 0 -1.77636e-15 
4.72444 1.10236 2.5982 
3.22831 2.95276 2.75585 
2.04739 2.95276 2.75577 
0.590386 4.48819 4.25187 
-0.590538 4.48819 4.2518 
-1.49606 4.13386 1.02344 
0.866144 4.33071 -5.2758 
0.433232 3.14961 -9.80321 
0.708558 2.59843 -9.80331 
-0.433111 3.14961 -9.80315 
-0.70844 2.59843 -9.80306 
-0.433111 2.08662 -9.80315 
-2.08638 2.91339 -8.30707 
-3.54325 2.87402 -8.34657 
-4.44862 2.2441 -8.38599 
-4.44862 0.511811 -8.38599 
-5.66914 1.10236 -0.433275 
-4.72463 1.10236 2.59821 
-3.26761 2.95276 2.75575 
-4.72463 2.99213 2.59821 
-5.62994 2.04724 -1.49622 
-6.22061 0.826772 -0.827003 
-6.49568 0.826772 -10.0789 
-5.90529 -0.118109 -2.95293 
-6.49596 5.27559 -5.1578 
-6.49585 5.7874 -9.17328 
-6.49568 4.84252 -10.0789 
-5.90544 -0.118109 -10.0396 
-3.54331 3.46457 -1.41748 
-0.90552 4.33071 -5.27563 
-2.08668 2.95276 2.75582 
-1.77183 2.20472 6.65339 
-0.590722 2.95276 8.42512 
-0.905544 1.77165 10.7083 
-2.95275 2.20472 6.65332 
-1.77165 0.551181 8.42506 
1.77141 0.551181 8.42498 
1.29905 0.787403 11.9684 
2.95271 2.20472 6.65338 
0.865847 1.77165 10.7084 
1.77151 2.20472 6.65359 
3.2281 1.10236 2.59828 
-3.19544 1.10236 2.59808 
0.590481 2.95276 8.42491 
-1.29942 0.787403 11.968 
6.18106 0.826772 -0.826572 
6.49617 0.826772 -10.0787 
5.90563 -0.118109 -2.95281 
6.49616 5.27559 -5.15734 
6.496 5.7874 -9.17309 
6.49617 4.84252 -10.0787 
5.90548 -0.118109 -10.0395 
3 0 1 2 
3 3 1 0 
3 1 3 4 
3 4 3 5 
3 3 6 5 
3 3 7 6 
3 3 0 7 
3 0 8 7 
3 0 9 8 
3 9 0 2 
3 9 2 10 
3 2 11 10 
3 12 11 2 
3 11 12 13 
3 14 13 12 
3 13 14 15 
3 14 16 15 
3 16 14 17 
3 14 12 17 
3 5 17 12 
3 5 18 17 
3 5 6 18 
3 6 19 18 
3 6 7 19 
3 7 8 19 
3 19 8 20 
3 8 21 20 
3 8 22 21 
3 22 8 23 
3 8 24 23 
3 9 24 8 
3 9 25 24 
3 26 25 9 
3 26 27 25 
3 26 28 27 
3 10 28 26 
3 28 10 29 
3 10 11 29 
3 29 11 30 
3 30 11 31 
3 31 11 32 
3 32 11 33 
3 11 13 33 
3 13 34 33 
3 13 15 34 
3 15 35 34 
3 16 35 15 
3 36 35 16 
3 37 35 36 
3 34 35 37 
3 38 34 37 
3 33 34 38 
3 33 39 34 
3 33 40 39 
3 40 39 41 
3 40 39 42 
3 40 42 43 
3 40 43 44 
3 40 41 45 
3 33 38 32 
3 31 32 38 
3 31 38 46 
3 46 38 37 
3 36 46 37 
3 23 46 36 
3 23 31 46 
3 23 30 31 
3 30 23 47 
3 24 47 23 
3 24 27 47 
3 24 25 27 
3 27 30 47 
3 27 28 30 
3 29 30 28 
3 23 36 48 
3 49 48 36 
3 48 49 50 
3 49 51 50 
3 51 49 52 
3 49 36 52 
3 16 52 36 
3 16 53 52 
3 54 53 16 
3 54 55 53 
3 56 55 54 
3 56 57 55 
3 56 58 57 
3 56 20 58 
3 19 20 56 
3 59 19 56 
3 19 59 18 
3 18 59 17 
3 60 17 59 
3 17 60 16 
3 60 54 16 
3 54 60 59 
3 59 56 54 
3 20 61 58 
3 20 21 61 
3 61 21 50 
3 21 22 50 
3 48 50 22 
3 23 48 22 
3 50 57 61 
3 57 50 51 
3 57 51 62 
3 51 52 62 
3 52 53 62 
3 55 62 53 
3 55 57 62 
3 58 61 57 
3 26 9 10 
3 5 12 4 
3 2 4 12 
3 1 4 2 
3 63 4 5 
3 64 4 63 
3 64 63 65 
3 64 66 63 
3 64 66 67 
3 64 67 68 
3 64 65 69 
