ply
format ascii 1.0
comment VCGLIB generated
element vertex 23
property float x
property float y
property float z
element face 42
property list uchar int vertex_indices
end_header
31.87801 1.270721 -37.80585 
21.62777 41.27728 -49.88108 
-88.5672 133.54 -41.56135 
-80.27271 59.22748 -53.27078 
-33.85004 94.42694 -88.00079 
-90.07846 70.20331 21.72611 
-13.27408 140.6914 81.49339 
18.04614 90.29291 85.74171 
-71.00539 93.71552 66.1254 
-39.68521 43.31705 70.37369 
25.38426 164.1549 52.46213 
76.96817 113.6237 -16.53902 
63.42052 35.05048 66.83394 
-40.61185 14.95618 34.44032 
6.852842 4.07901 47.62588 
-110.4388 135.0181 28.67106 
70.76132 104.4135 64.60599 
-26.16992 170.5378 38.70624 
-25.11608 10.41312 -39.56055 
47.75187 157.6772 -19.18699 
-15.17245 178.7293 -15.28696 
86.19795 73.07654 -53.37737 
97.80766 28.40298 -9.888432 
3 9 14 12 
3 16 12 22 
3 14 0 22 
3 18 0 14 
3 18 1 0 
3 22 12 14 
3 9 13 14 
3 16 7 12 
3 19 11 21 
3 4 3 2 
3 13 5 3 
3 21 11 22 
3 4 2 20 
3 15 17 20 
3 19 21 4 
3 21 1 4 
3 3 5 15 
3 15 2 3 
3 7 6 8 
3 9 8 5 
3 11 19 10 
3 6 7 16 
3 5 8 15 
3 10 19 20 
3 17 15 8 
3 16 10 6 
3 5 13 9 
3 17 8 6 
3 8 9 7 
3 12 7 9 
3 10 16 11 
3 3 18 13 
3 14 13 18 
3 20 2 15 
3 22 11 16 
3 6 10 17 
3 20 17 10 
3 4 1 18 
3 4 20 19 
3 22 0 1 
3 4 18 3 
3 22 1 21 
