ply
format ascii 1.0
comment VCGLIB generated
element vertex 114
property float x
property float y
property float z
element face 38
property list uchar int vertex_indices
end_header
0.000945 -0.378465 -0.211213 
-0.511502 0.008503 0.401276 
-0.297969 0.232635 -0.569686 
0.302022 0.232888 -0.567445 
0.508483 0.008933 0.405085 
0.000945 -0.378465 -0.211213 
-1.587391 -0.179204 -0.678588 
-0.270622 0.308821 0.132415 
-1.615997 -0.230633 -1.046196 
-1.707819 -0.344279 -0.545744 
-0.270622 0.308821 0.132415 
-1.587391 -0.179204 -0.678588 
0.264757 0.023441 1.401319 
-0.010378 -0.307977 2.813182 
-0.002884 -0.51936 0.829715 
-0.270622 0.308821 0.132415 
-0.297969 0.232635 -0.569686 
-1.615997 -0.230633 -1.046196 
-0.511502 0.008503 0.401276 
-0.275235 0.023214 1.399303 
-0.270622 0.308821 0.132415 
0.000945 -0.378465 -0.211213 
0.508483 0.008933 0.405085 
0.264757 0.023441 1.401319 
-1.707819 -0.344279 -0.545744 
-0.511502 0.008503 0.401276 
-0.270622 0.308821 0.132415 
0.26937 0.309049 0.134431 
0.264757 0.023441 1.401319 
0.508483 0.008933 0.405085 
-0.002884 -0.51936 0.829715 
-0.010378 -0.307977 2.813182 
-0.275235 0.023214 1.399303 
-0.275235 0.023214 1.399303 
-0.511502 0.008503 0.401276 
0.000945 -0.378465 -0.211213 
0.508483 0.008933 0.405085 
0.302022 0.232888 -0.567445 
1.623955 -0.229269 -1.034099 
1.623955 -0.229269 -1.034099 
1.712131 -0.342839 -0.532975 
0.508483 0.008933 0.405085 
-1.615997 -0.230633 -1.046196 
-0.297969 0.232635 -0.569686 
-0.511502 0.008503 0.401276 
-0.511502 0.008503 0.401276 
-1.707819 -0.344279 -0.545744 
-1.615997 -0.230633 -1.046196 
1.623955 -0.229269 -1.034099 
0.302022 0.232888 -0.567445 
0.26937 0.309049 0.134431 
1.623955 -0.229269 -1.034099 
0.26937 0.309049 0.134431 
1.592562 -0.177865 -0.666715 
0.26937 0.309049 0.134431 
0.508483 0.008933 0.405085 
1.712131 -0.342839 -0.532975 
1.592562 -0.177865 -0.666715 
0.26937 0.309049 0.134431 
1.712131 -0.342839 -0.532975 
0.302022 0.232888 -0.567445 
0.000945 -0.378465 -0.211213 
-0.297969 0.232635 -0.569686 
0.26937 0.309049 0.134431 
0.005103 1.023605 -1.480024 
-0.270622 0.308821 0.132415 
-0.275235 0.023214 1.399303 
0.000945 -0.378465 -0.211213 
-0.002884 -0.51936 0.829715 
-0.275235 0.023214 1.399303 
-0.010378 -0.307977 2.813182 
0.264757 0.023441 1.401319 
-0.002884 -0.51936 0.829715 
0.000945 -0.378465 -0.211213 
0.264757 0.023441 1.401319 
-1.707819 -0.344279 -0.545744 
-2.907654 -0.248943 -0.600368 
-1.615997 -0.230633 -1.046196 
-1.615997 -0.230633 -1.046196 
-2.907654 -0.248943 -0.600368 
-1.587391 -0.179204 -0.678588 
-0.297969 0.232635 -0.569686 
0.005103 1.023605 -1.480024 
0.302022 0.232888 -0.567445 
-1.587391 -0.179204 -0.678588 
-2.907654 -0.248943 -0.600368 
-1.707819 -0.344279 -0.545744 
0.005103 1.023605 -1.480024 
-0.297969 0.232635 -0.569686 
-0.270622 0.308821 0.132415 
1.592562 -0.177865 -0.666715 
2.912261 -0.246493 -0.578638 
1.623955 -0.229269 -1.034099 
-0.270622 0.308821 0.132415 
-0.002447 0.470158 0.603107 
0.26937 0.309049 0.134431 
1.712131 -0.342839 -0.532975 
2.912261 -0.246493 -0.578638 
1.592562 -0.177865 -0.666715 
1.623955 -0.229269 -1.034099 
2.912261 -0.246493 -0.578638 
1.712131 -0.342839 -0.532975 
0.26937 0.309049 0.134431 
0.302022 0.232888 -0.567445 
0.005103 1.023605 -1.480024 
0.264757 0.023441 1.401319 
-0.002447 0.470158 0.603107 
-0.275235 0.023214 1.399303 
0.264757 0.023441 1.401319 
0.26937 0.309049 0.134431 
-0.002447 0.470158 0.603107 
-0.002447 0.470158 0.603107 
-0.270622 0.308821 0.132415 
-0.275235 0.023214 1.399303 
3 63 64 65 
3 66 67 68 
3 69 70 71 
3 72 73 74 
3 75 76 77 
3 78 79 80 
3 81 82 83 
3 84 85 86 
3 87 88 89 
3 90 91 92 
3 93 94 95 
3 96 97 98 
3 99 100 101 
3 102 103 104 
3 105 106 107 
3 108 109 110 
3 111 112 113 
3 60 61 62 
3 0 1 2 
3 3 4 5 
3 6 7 8 
3 9 10 11 
3 12 13 14 
3 15 16 17 
3 18 19 20 
3 21 22 23 
3 24 25 26 
3 27 28 29 
3 30 31 32 
3 33 34 35 
3 36 37 38 
3 39 40 41 
3 42 43 44 
3 45 46 47 
3 48 49 50 
3 51 52 53 
3 54 55 56 
3 57 58 59 
