ply
format ascii 1.0
comment Created by Blender 2.78 (sub 0) - www.blender.org, source file: 'untitled.blend'
element vertex 544
property float x
property float y
property float z
element face 252
property list uchar uint vertex_indices
end_header
3.494578 1.872936 -0.356026
2.698350 1.883634 -0.349078
2.797478 1.882734 -0.115578
3.262328 1.876485 -0.119627
2.805377 2.468557 -0.116628
2.706248 2.469457 -0.350127
3.502476 2.458759 -0.357126
3.270176 2.462308 -0.120727
2.455302 1.887383 -0.101681
2.690452 1.884384 -0.006652
2.698350 2.470207 -0.007702
2.463200 2.473206 -0.102731
2.462400 1.888783 0.709743
2.695900 1.885433 0.610615
2.703799 2.471306 0.609565
2.470299 2.474606 0.708694
2.709797 1.885883 0.952841
2.804827 1.884183 0.717642
2.812675 2.470007 0.716592
2.717696 2.471706 0.951791
3.506025 1.875135 0.945842
3.269626 1.877935 0.713592
3.277524 2.463758 0.712493
3.513924 2.461009 0.944792
2.706248 2.469457 -0.350127
2.698350 1.883634 -0.349078
3.494578 1.872936 -0.356026
3.502476 2.458759 -0.357126
2.706248 2.469457 -0.350127
3.494578 1.872936 -0.356026
2.463200 2.473206 -0.102731
2.455302 1.887383 -0.101681
2.698350 1.883634 -0.349078
2.706248 2.469457 -0.350127
2.463200 2.473206 -0.102731
2.698350 1.883634 -0.349078
2.470299 2.474606 0.708694
2.462400 1.888783 0.709743
2.455302 1.887383 -0.101681
2.463200 2.473206 -0.102731
2.470299 2.474606 0.708694
2.455302 1.887383 -0.101681
2.717696 2.471706 0.951791
2.709797 1.885883 0.952841
2.462400 1.888783 0.709743
2.470299 2.474606 0.708694
2.717696 2.471706 0.951791
2.462400 1.888783 0.709743
3.513924 2.461009 0.944792
3.506025 1.875135 0.945842
2.709797 1.885883 0.952841
2.717696 2.471706 0.951791
3.513924 2.461009 0.944792
2.709797 1.885883 0.952841
3.502476 2.458759 -0.357126
3.494578 1.872936 -0.356026
3.506025 1.875135 0.945842
3.513924 2.461009 0.944792
3.502476 2.458759 -0.357126
3.506025 1.875135 0.945842
3.277524 2.463758 0.712493
3.269626 1.877935 0.713592
3.262328 1.876485 -0.119627
3.270176 2.462308 -0.120727
3.277524 2.463758 0.712493
3.262328 1.876485 -0.119627
2.812675 2.470007 0.716592
2.804827 1.884183 0.717642
3.269626 1.877935 0.713592
3.277524 2.463758 0.712493
2.812675 2.470007 0.716592
3.269626 1.877935 0.713592
2.703799 2.471306 0.609565
2.695900 1.885433 0.610615
2.804827 1.884183 0.717642
2.812675 2.470007 0.716592
2.703799 2.471306 0.609565
2.804827 1.884183 0.717642
2.698350 2.470207 -0.007702
2.690452 1.884384 -0.006652
2.695900 1.885433 0.610615
2.703799 2.471306 0.609565
2.698350 2.470207 -0.007702
2.695900 1.885433 0.610615
2.805377 2.468557 -0.116628
2.797478 1.882734 -0.115578
2.690452 1.884384 -0.006652
2.698350 2.470207 -0.007702
2.805377 2.468557 -0.116628
2.690452 1.884384 -0.006652
3.270176 2.462308 -0.120727
3.262328 1.876485 -0.119627
2.797478 1.882734 -0.115578
2.805377 2.468557 -0.116628
3.270176 2.462308 -0.120727
2.797478 1.882734 -0.115578
1.387733 1.901730 -0.103231
1.960510 1.894031 -0.108230
2.192759 1.890432 -0.344679
1.151335 1.904479 -0.335481
2.200657 2.476256 -0.345728
1.968408 2.479855 -0.109330
1.395581 2.487553 -0.104281
1.159233 2.490302 -0.336580
1.967858 1.895431 0.724990
2.204206 1.892682 0.957290
2.212105 2.478555 0.956240
1.975706 2.481254 0.723890
1.395032 1.903129 0.729989
1.162782 1.906729 0.966388
1.170680 2.492552 0.965338
1.402930 2.489002 0.728939
1.963159 1.894531 0.191205
1.559596 1.899930 0.194755
1.561646 1.900380 0.429104
1.965209 1.894931 0.425555
1.569544 2.486203 0.428004
1.567444 2.485803 0.193705
1.971007 2.480354 0.190156
1.973107 2.480754 0.424455
1.159233 2.490302 -0.336580
1.151335 1.904479 -0.335481
2.192759 1.890432 -0.344679
2.200657 2.476256 -0.345728
1.159233 2.490302 -0.336580
2.192759 1.890432 -0.344679
1.395581 2.487553 -0.104281
1.387733 1.901730 -0.103231
1.151335 1.904479 -0.335481
1.159233 2.490302 -0.336580
1.395581 2.487553 -0.104281
1.151335 1.904479 -0.335481
1.968408 2.479855 -0.109330
1.960510 1.894031 -0.108230
1.387733 1.901730 -0.103231
1.395581 2.487553 -0.104281
1.968408 2.479855 -0.109330
1.387733 1.901730 -0.103231
1.971007 2.480354 0.190156
1.963159 1.894531 0.191205
1.960510 1.894031 -0.108230
1.968408 2.479855 -0.109330
1.971007 2.480354 0.190156
1.960510 1.894031 -0.108230
1.567444 2.485803 0.193705
1.559596 1.899930 0.194755
1.963159 1.894531 0.191205
1.971007 2.480354 0.190156
1.567444 2.485803 0.193705
1.963159 1.894531 0.191205
1.569544 2.486203 0.428004
1.561646 1.900380 0.429104
1.559596 1.899930 0.194755
1.567444 2.485803 0.193705
1.569544 2.486203 0.428004
1.559596 1.899930 0.194755
1.973107 2.480754 0.424455
1.965209 1.894931 0.425555
1.561646 1.900380 0.429104
1.569544 2.486203 0.428004
1.973107 2.480754 0.424455
1.561646 1.900380 0.429104
1.975706 2.481254 0.723890
1.967858 1.895431 0.724990
1.965209 1.894931 0.425555
1.973107 2.480754 0.424455
1.975706 2.481254 0.723890
1.965209 1.894931 0.425555
1.402930 2.489002 0.728939
1.395032 1.903129 0.729989
1.967858 1.895431 0.724990
1.975706 2.481254 0.723890
1.402930 2.489002 0.728939
1.967858 1.895431 0.724990
1.170680 2.492552 0.965338
1.162782 1.906729 0.966388
1.395032 1.903129 0.729989
1.402930 2.489002 0.728939
1.170680 2.492552 0.965338
1.395032 1.903129 0.729989
2.212105 2.478555 0.956240
2.204206 1.892682 0.957290
1.162782 1.906729 0.966388
1.170680 2.492552 0.965338
2.212105 2.478555 0.956240
1.162782 1.906729 0.966388
2.200657 2.476256 -0.345728
2.192759 1.890432 -0.344679
2.204206 1.892682 0.957290
2.212105 2.478555 0.956240
2.200657 2.476256 -0.345728
2.204206 1.892682 0.957290
0.656642 1.911128 -0.331182
0.668089 1.913377 0.970787
0.902438 1.910228 0.968687
0.890991 1.907979 -0.333231
0.910287 2.496051 0.967638
0.675987 2.499200 0.969637
0.664540 2.496951 -0.332231
0.898839 2.493802 -0.334281
0.663740 1.912527 0.475144
0.372653 1.915477 -0.056141
0.377002 1.916326 0.439502
0.384900 2.502150 0.438402
0.380501 2.501300 -0.057241
0.671588 2.498350 0.474044
0.090964 1.920226 0.480143
0.095313 1.921075 0.975786
0.103161 2.506948 0.974686
0.098812 2.506049 0.479043
0.083865 1.918876 -0.326133
-0.150484 1.922026 -0.324083
-0.139036 1.924275 0.977835
-0.142586 2.507849 -0.325183
0.091714 2.504699 -0.327182
-0.131138 2.510098 0.976736
0.664540 2.496951 -0.332231
0.656642 1.911128 -0.331182
0.890991 1.907979 -0.333231
0.898839 2.493802 -0.334281
0.664540 2.496951 -0.332231
0.890991 1.907979 -0.333231
0.671588 2.498350 0.474044
0.663740 1.912527 0.475144
0.656642 1.911128 -0.331182
0.664540 2.496951 -0.332231
0.671588 2.498350 0.474044
0.656642 1.911128 -0.331182
0.380501 2.501300 -0.057241
0.372653 1.915477 -0.056141
0.663740 1.912527 0.475144
0.671588 2.498350 0.474044
0.380501 2.501300 -0.057241
0.663740 1.912527 0.475144
0.098812 2.506049 0.479043
0.090964 1.920226 0.480143
0.372653 1.915477 -0.056141
0.380501 2.501300 -0.057241
0.098812 2.506049 0.479043
0.372653 1.915477 -0.056141
0.091714 2.504699 -0.327182
0.083865 1.918876 -0.326133
0.090964 1.920226 0.480143
0.098812 2.506049 0.479043
0.091714 2.504699 -0.327182
0.090964 1.920226 0.480143
-0.142586 2.507849 -0.325183
-0.150484 1.922026 -0.324083
0.083865 1.918876 -0.326133
0.091714 2.504699 -0.327182
-0.142586 2.507849 -0.325183
0.083865 1.918876 -0.326133
-0.131138 2.510098 0.976736
-0.139036 1.924275 0.977835
-0.150484 1.922026 -0.324083
-0.142586 2.507849 -0.325183
-0.131138 2.510098 0.976736
-0.150484 1.922026 -0.324083
0.103161 2.506948 0.974686
0.095313 1.921075 0.975786
-0.139036 1.924275 0.977835
-0.131138 2.510098 0.976736
0.103161 2.506948 0.974686
-0.139036 1.924275 0.977835
0.384900 2.502150 0.438402
0.377002 1.916326 0.439502
0.095313 1.921075 0.975786
0.103161 2.506948 0.974686
0.384900 2.502150 0.438402
0.095313 1.921075 0.975786
0.675987 2.499200 0.969637
0.668089 1.913377 0.970787
0.377002 1.916326 0.439502
0.384900 2.502150 0.438402
0.675987 2.499200 0.969637
0.377002 1.916326 0.439502
0.910287 2.496051 0.967638
0.902438 1.910228 0.968687
0.668089 1.913377 0.970787
0.675987 2.499200 0.969637
0.910287 2.496051 0.967638
0.668089 1.913377 0.970787
0.898839 2.493802 -0.334281
0.890991 1.907979 -0.333231
0.902438 1.910228 0.968687
0.910287 2.496051 0.967638
0.898839 2.493802 -0.334281
0.902438 1.910228 0.968687
-0.656074 1.928824 -0.319634
-1.207055 1.936222 -0.314835
-1.107927 1.935323 -0.081336
-0.751054 1.930524 -0.084435
-1.100028 2.521146 -0.082435
-1.199157 2.522046 -0.315935
-0.648176 2.514647 -0.320734
-0.743206 2.516346 -0.085535
-1.450103 1.939972 -0.067439
-1.214954 1.936972 0.027591
-1.207055 2.522795 0.026491
-1.442255 2.525795 -0.068488
-1.443004 1.941371 0.744036
-1.209505 1.938022 0.644907
-1.201656 2.523895 0.643808
-1.435106 2.527194 0.742886
-1.195608 1.938472 0.987133
-1.100628 1.936772 0.751934
-1.092730 2.522595 0.750784
-1.187710 2.524295 0.986034
-0.644627 1.931073 0.982284
-0.743756 1.931973 0.748785
-0.735857 2.517797 0.747685
-0.636729 2.516897 0.981185
-0.401530 1.927324 0.734838
-0.636729 1.930323 0.639858
-0.628830 2.516147 0.638759
-0.393681 2.513148 0.733788
-0.408678 1.925925 -0.076537
-0.642128 1.929274 0.022592
-0.634279 2.515097 0.021492
-0.400780 2.511748 -0.077636
-1.199157 2.522046 -0.315935
-1.207055 1.936222 -0.314835
-0.656074 1.928824 -0.319634
-0.648176 2.514647 -0.320734
-1.199157 2.522046 -0.315935
-0.656074 1.928824 -0.319634
-1.442255 2.525795 -0.068488
-1.450103 1.939972 -0.067439
-1.207055 1.936222 -0.314835
-1.199157 2.522046 -0.315935
-1.442255 2.525795 -0.068488
-1.207055 1.936222 -0.314835
-1.435106 2.527194 0.742886
-1.443004 1.941371 0.744036
-1.450103 1.939972 -0.067439
-1.442255 2.525795 -0.068488
-1.435106 2.527194 0.742886
-1.450103 1.939972 -0.067439
-1.187710 2.524295 0.986034
-1.195608 1.938472 0.987133
-1.443004 1.941371 0.744036
-1.435106 2.527194 0.742886
-1.187710 2.524295 0.986034
-1.443004 1.941371 0.744036
-0.636729 2.516897 0.981185
-0.644627 1.931073 0.982284
-1.195608 1.938472 0.987133
-1.187710 2.524295 0.986034
-0.636729 2.516897 0.981185
-1.195608 1.938472 0.987133
-0.393681 2.513148 0.733788
-0.401530 1.927324 0.734838
-0.644627 1.931073 0.982284
-0.636729 2.516897 0.981185
-0.393681 2.513148 0.733788
-0.644627 1.931073 0.982284
-0.400780 2.511748 -0.077636
-0.408678 1.925925 -0.076537
-0.401530 1.927324 0.734838
-0.393681 2.513148 0.733788
-0.400780 2.511748 -0.077636
-0.401530 1.927324 0.734838
-0.648176 2.514647 -0.320734
-0.656074 1.928824 -0.319634
-0.408678 1.925925 -0.076537
-0.400780 2.511748 -0.077636
-0.648176 2.514647 -0.320734
-0.408678 1.925925 -0.076537
-0.634279 2.515097 0.021492
-0.642128 1.929274 0.022592
-0.751054 1.930524 -0.084435
-0.743206 2.516346 -0.085535
-0.634279 2.515097 0.021492
-0.751054 1.930524 -0.084435
-0.628830 2.516147 0.638759
-0.636729 1.930323 0.639858
-0.642128 1.929274 0.022592
-0.634279 2.515097 0.021492
-0.628830 2.516147 0.638759
-0.642128 1.929274 0.022592
-0.735857 2.517797 0.747685
-0.743756 1.931973 0.748785
-0.636729 1.930323 0.639858
-0.628830 2.516147 0.638759
-0.735857 2.517797 0.747685
-0.636729 1.930323 0.639858
-1.092730 2.522595 0.750784
-1.100628 1.936772 0.751934
-0.743756 1.931973 0.748785
-0.735857 2.517797 0.747685
-1.092730 2.522595 0.750784
-0.743756 1.931973 0.748785
-1.201656 2.523895 0.643808
-1.209505 1.938022 0.644907
-1.100628 1.936772 0.751934
-1.092730 2.522595 0.750784
-1.201656 2.523895 0.643808
-1.100628 1.936772 0.751934
-1.207055 2.522795 0.026491
-1.214954 1.936972 0.027591
-1.209505 1.938022 0.644907
-1.201656 2.523895 0.643808
-1.207055 2.522795 0.026491
-1.209505 1.938022 0.644907
-1.100028 2.521146 -0.082435
-1.107927 1.935323 -0.081336
-1.214954 1.936972 0.027591
-1.207055 2.522795 0.026491
-1.100028 2.521146 -0.082435
-1.214954 1.936972 0.027591
-0.743206 2.516346 -0.085535
-0.751054 1.930524 -0.084435
-1.107927 1.935323 -0.081336
-1.100028 2.521146 -0.082435
-0.743206 2.516346 -0.085535
-1.107927 1.935323 -0.081336
-2.441638 1.952869 -0.303987
-2.591706 1.954868 -0.302688
-2.439989 1.953168 -0.116428
-2.432141 2.539042 -0.117528
-2.583808 2.540741 -0.303737
-2.433790 2.538692 -0.305037
-2.958327 1.960667 0.163961
-2.806610 1.958967 0.350221
-2.798711 2.544841 0.349171
-2.950428 2.546540 0.162862
-3.333046 1.964866 -0.296189
-3.481463 1.967215 -0.107280
-3.106694 1.963016 0.352821
-3.473565 2.553039 -0.108380
-3.325197 2.550689 -0.297239
-3.098796 2.548840 0.351771
-3.483113 1.966916 -0.294889
-3.475215 2.552739 -0.295939
-3.473315 1.968815 0.819470
-3.321598 1.967116 1.005729
-2.954977 1.961317 0.539130
-3.313750 2.552939 1.004679
-3.465417 2.554638 0.818420
-2.947129 2.547140 0.537980
-3.471666 1.969115 1.007029
-3.463768 2.554989 1.005979
-2.580258 1.957118 0.999231
-2.431841 1.954768 0.810372
-2.423992 2.540641 0.809272
-2.572360 2.542941 0.998181
-2.430191 1.955118 0.997931
-2.422343 2.540941 0.996831
-2.583808 2.540741 -0.303737
-2.591706 1.954868 -0.302688
-2.441638 1.952869 -0.303987
-2.433790 2.538692 -0.305037
-2.583808 2.540741 -0.303737
-2.441638 1.952869 -0.303987
-2.950428 2.546540 0.162862
-2.958327 1.960667 0.163961
-2.591706 1.954868 -0.302688
-2.583808 2.540741 -0.303737
-2.950428 2.546540 0.162862
-2.591706 1.954868 -0.302688
-3.325197 2.550689 -0.297239
-3.333046 1.964866 -0.296189
-2.958327 1.960667 0.163961
-2.950428 2.546540 0.162862
-3.325197 2.550689 -0.297239
-2.958327 1.960667 0.163961
-3.475215 2.552739 -0.295939
-3.483113 1.966916 -0.294889
-3.333046 1.964866 -0.296189
-3.325197 2.550689 -0.297239
-3.475215 2.552739 -0.295939
-3.333046 1.964866 -0.296189
-3.473565 2.553039 -0.108380
-3.481463 1.967215 -0.107280
-3.483113 1.966916 -0.294889
-3.475215 2.552739 -0.295939
-3.473565 2.553039 -0.108380
-3.483113 1.966916 -0.294889
-3.098796 2.548840 0.351771
-3.106694 1.963016 0.352821
-3.481463 1.967215 -0.107280
-3.473565 2.553039 -0.108380
-3.098796 2.548840 0.351771
-3.481463 1.967215 -0.107280
-3.465417 2.554638 0.818420
-3.473315 1.968815 0.819470
-3.106694 1.963016 0.352821
-3.098796 2.548840 0.351771
-3.465417 2.554638 0.818420
-3.106694 1.963016 0.352821
-3.463768 2.554989 1.005979
-3.471666 1.969115 1.007029
-3.473315 1.968815 0.819470
-3.465417 2.554638 0.818420
-3.463768 2.554989 1.005979
-3.473315 1.968815 0.819470
-3.313750 2.552939 1.004679
-3.321598 1.967116 1.005729
-3.471666 1.969115 1.007029
-3.463768 2.554989 1.005979
-3.313750 2.552939 1.004679
-3.471666 1.969115 1.007029
-2.947129 2.547140 0.537980
-2.954977 1.961317 0.539130
-3.321598 1.967116 1.005729
-3.313750 2.552939 1.004679
-2.947129 2.547140 0.537980
-3.321598 1.967116 1.005729
-2.572360 2.542941 0.998181
-2.580258 1.957118 0.999231
-2.954977 1.961317 0.539130
-2.947129 2.547140 0.537980
-2.572360 2.542941 0.998181
-2.954977 1.961317 0.539130
-2.422343 2.540941 0.996831
-2.430191 1.955118 0.997931
-2.580258 1.957118 0.999231
-2.572360 2.542941 0.998181
-2.422343 2.540941 0.996831
-2.580258 1.957118 0.999231
-2.423992 2.540641 0.809272
-2.431841 1.954768 0.810372
-2.430191 1.955118 0.997931
-2.422343 2.540941 0.996831
-2.423992 2.540641 0.809272
-2.430191 1.955118 0.997931
-2.798711 2.544841 0.349171
-2.806610 1.958967 0.350221
-2.431841 1.954768 0.810372
-2.423992 2.540641 0.809272
-2.798711 2.544841 0.349171
-2.431841 1.954768 0.810372
-2.432141 2.539042 -0.117528
-2.439989 1.953168 -0.116428
-2.806610 1.958967 0.350221
-2.798711 2.544841 0.349171
-2.432141 2.539042 -0.117528
-2.806610 1.958967 0.350221
-2.433790 2.538692 -0.305037
-2.441638 1.952869 -0.303987
-2.439989 1.953168 -0.116428
-2.432141 2.539042 -0.117528
-2.433790 2.538692 -0.305037
-2.439989 1.953168 -0.116428
3 0 1 2
3 0 2 3
3 4 5 6
3 7 4 6
3 1 8 9
3 1 9 2
3 10 11 5
3 4 10 5
3 8 12 13
3 8 13 9
3 14 15 11
3 10 14 11
3 12 16 17
3 12 17 13
3 18 19 15
3 14 18 15
3 16 20 21
3 16 21 17
3 22 23 19
3 18 22 19
3 20 0 3
3 20 3 21
3 7 6 23
3 22 7 23
3 24 25 26
3 27 28 29
3 30 31 32
3 33 34 35
3 36 37 38
3 39 40 41
3 42 43 44
3 45 46 47
3 48 49 50
3 51 52 53
3 54 55 56
3 57 58 59
3 60 61 62
3 63 64 65
3 66 67 68
3 69 70 71
3 72 73 74
3 75 76 77
3 78 79 80
3 81 82 83
3 84 85 86
3 87 88 89
3 90 91 92
3 93 94 95
3 96 97 98
3 96 98 99
3 100 101 102
3 103 100 102
3 97 104 105
3 97 105 98
3 106 107 101
3 100 106 101
3 104 108 109
3 104 109 105
3 110 111 107
3 106 110 107
3 112 113 114
3 112 114 115
3 116 117 118
3 119 116 118
3 120 121 122
3 123 124 125
3 126 127 128
3 129 130 131
3 132 133 134
3 135 136 137
3 138 139 140
3 141 142 143
3 144 145 146
3 147 148 149
3 150 151 152
3 153 154 155
3 156 157 158
3 159 160 161
3 162 163 164
3 165 166 167
3 168 169 170
3 171 172 173
3 174 175 176
3 177 178 179
3 180 181 182
3 183 184 185
3 186 187 188
3 189 190 191
3 192 193 194
3 192 194 195
3 196 197 198
3 199 196 198
3 200 201 202
3 200 202 193
3 203 204 205
3 197 203 205
3 201 206 207
3 201 207 202
3 208 209 204
3 203 208 204
3 207 210 211
3 207 211 212
3 213 214 208
3 215 213 208
3 216 217 218
3 219 220 221
3 222 223 224
3 225 226 227
3 228 229 230
3 231 232 233
3 234 235 236
3 237 238 239
3 240 241 242
3 243 244 245
3 246 247 248
3 249 250 251
3 252 253 254
3 255 256 257
3 258 259 260
3 261 262 263
3 264 265 266
3 267 268 269
3 270 271 272
3 273 274 275
3 276 277 278
3 279 280 281
3 282 283 284
3 285 286 287
3 288 289 290
3 288 290 291
3 292 293 294
3 295 292 294
3 289 296 297
3 289 297 290
3 298 299 293
3 292 298 293
3 296 300 301
3 296 301 297
3 302 303 299
3 298 302 299
3 300 304 305
3 300 305 301
3 306 307 303
3 302 306 303
3 304 308 309
3 304 309 305
3 310 311 307
3 306 310 307
3 308 312 313
3 308 313 309
3 314 315 311
3 310 314 311
3 312 316 317
3 312 317 313
3 318 319 315
3 314 318 315
3 316 288 291
3 316 291 317
3 295 294 319
3 318 295 319
3 320 321 322
3 323 324 325
3 326 327 328
3 329 330 331
3 332 333 334
3 335 336 337
3 338 339 340
3 341 342 343
3 344 345 346
3 347 348 349
3 350 351 352
3 353 354 355
3 356 357 358
3 359 360 361
3 362 363 364
3 365 366 367
3 368 369 370
3 371 372 373
3 374 375 376
3 377 378 379
3 380 381 382
3 383 384 385
3 386 387 388
3 389 390 391
3 392 393 394
3 395 396 397
3 398 399 400
3 401 402 403
3 404 405 406
3 407 408 409
3 410 411 412
3 413 414 415
3 416 417 418
3 419 420 421
3 417 422 423
3 417 423 418
3 424 425 420
3 419 424 420
3 422 426 427
3 422 427 428
3 429 430 425
3 431 429 425
3 426 432 427
3 429 433 430
3 428 434 435
3 428 435 436
3 437 438 431
3 439 437 431
3 434 440 435
3 437 441 438
3 436 442 443
3 436 443 423
3 444 445 439
3 424 444 439
3 442 446 443
3 444 447 445
3 422 428 436
3 422 436 423
3 439 431 425
3 424 439 425
3 448 449 450
3 451 452 453
3 454 455 456
3 457 458 459
3 460 461 462
3 463 464 465
3 466 467 468
3 469 470 471
3 472 473 474
3 475 476 477
3 478 479 480
3 481 482 483
3 484 485 486
3 487 488 489
3 490 491 492
3 493 494 495
3 496 497 498
3 499 500 501
3 502 503 504
3 505 506 507
3 508 509 510
3 511 512 513
3 514 515 516
3 517 518 519
3 520 521 522
3 523 524 525
3 526 527 528
3 529 530 531
3 532 533 534
3 535 536 537
3 538 539 540
3 541 542 543
