ply
format ascii 1.0
comment PerformativeDesign.com - PLY Export.
element vertex 545
property float x
property float y
property float z
element face 368
property list uchar uint vertex_indices
end_header
0.0 0.0 0.0
-2680.0 -500.0 0.0
-2068.375 -500.0 0.0
-1880.0 -311.625 0.0
-1880.0 311.625 0.0
-2068.375 500.0 0.0
-2680.0 500.0 0.0
-2500.00018 -320.00018 0.0
-2500.00018 320.00018 0.0
-2142.933384037 320.00018 0.0
-2059.99982 237.066615963 0.0
-2059.99982 -237.066615963 0.0
-2142.933384037 -320.00018 0.0
-2680.0 -500.0 450.0
-2068.375 -500.0 450.0
-1880.0 -311.625 450.0
-1880.0 311.625 450.0
-2068.375 500.0 450.0
-2680.0 500.0 450.0
-2500.00018 -320.00018 450.0
-2500.00018 320.00018 450.0
-2142.933384037 320.00018 450.0
-2059.99982 237.066615963 450.0
-2059.99982 -237.066615963 450.0
-2142.933384037 -320.00018 450.0
-2680.0 -500.0 0.0
-2068.375 -500.0 0.0
-2068.375 -500.0 450.0
-2680.0 -500.0 0.0
-2068.375 -500.0 450.0
-2680.0 -500.0 450.0
-2068.375 -500.0 0.0
-1880.0 -311.625 0.0
-1880.0 -311.625 450.0
-2068.375 -500.0 0.0
-1880.0 -311.625 450.0
-2068.375 -500.0 450.0
-1880.0 -311.625 0.0
-1880.0 311.625 0.0
-1880.0 311.625 450.0
-1880.0 -311.625 0.0
-1880.0 311.625 450.0
-1880.0 -311.625 450.0
-1880.0 311.625 0.0
-2068.375 500.0 0.0
-2068.375 500.0 450.0
-1880.0 311.625 0.0
-2068.375 500.0 450.0
-1880.0 311.625 450.0
-2068.375 500.0 0.0
-2680.0 500.0 0.0
-2680.0 500.0 450.0
-2068.375 500.0 0.0
-2680.0 500.0 450.0
-2068.375 500.0 450.0
-2680.0 500.0 0.0
-2680.0 -500.0 0.0
-2680.0 -500.0 450.0
-2680.0 500.0 0.0
-2680.0 -500.0 450.0
-2680.0 500.0 450.0
-2500.00018 -320.00018 0.0
-2500.00018 320.00018 0.0
-2500.00018 320.00018 450.0
-2500.00018 -320.00018 0.0
-2500.00018 320.00018 450.0
-2500.00018 -320.00018 450.0
-2500.00018 320.00018 0.0
-2142.933384037 320.00018 0.0
-2142.933384037 320.00018 450.0
-2500.00018 320.00018 0.0
-2142.933384037 320.00018 450.0
-2500.00018 320.00018 450.0
-2142.933384037 320.00018 0.0
-2059.99982 237.066615963 0.0
-2059.99982 237.066615963 450.0
-2142.933384037 320.00018 0.0
-2059.99982 237.066615963 450.0
-2142.933384037 320.00018 450.0
-2059.99982 237.066615963 0.0
-2059.99982 -237.066615963 0.0
-2059.99982 -237.066615963 450.0
-2059.99982 237.066615963 0.0
-2059.99982 -237.066615963 450.0
-2059.99982 237.066615963 450.0
-2059.99982 -237.066615963 0.0
-2142.933384037 -320.00018 0.0
-2142.933384037 -320.00018 450.0
-2059.99982 -237.066615963 0.0
-2142.933384037 -320.00018 450.0
-2059.99982 -237.066615963 450.0
-2142.933384037 -320.00018 0.0
-2500.00018 -320.00018 0.0
-2500.00018 -320.00018 450.0
-2142.933384037 -320.00018 0.0
-2500.00018 -320.00018 450.0
-2142.933384037 -320.00018 450.0
-1680.0 -500.0 0.0
-880.0 -500.0 0.0
-1059.99982 -320.00018 0.0
-1500.00018 -320.00018 0.0
-1500.00018 -89.99991 0.0
-1190.00009 -89.99991 0.0
-1190.00009 89.99991 0.0
-1500.00018 89.99991 0.0
-1500.00018 320.00018 0.0
-1059.99982 320.00018 0.0
-880.0 500.0 0.0
-1680.0 500.0 0.0
-1680.0 -500.0 450.0
-880.0 -500.0 450.0
-1059.99982 -320.00018 450.0
-1500.00018 -320.00018 450.0
-1500.00018 -89.99991 450.0
-1190.00009 -89.99991 450.0
-1190.00009 89.99991 450.0
-1500.00018 89.99991 450.0
-1500.00018 320.00018 450.0
-1059.99982 320.00018 450.0
-880.0 500.0 450.0
-1680.0 500.0 450.0
-1680.0 -500.0 0.0
-880.0 -500.0 0.0
-880.0 -500.0 450.0
-1680.0 -500.0 0.0
-880.0 -500.0 450.0
-1680.0 -500.0 450.0
-880.0 -500.0 0.0
-1059.99982 -320.00018 0.0
-1059.99982 -320.00018 450.0
-880.0 -500.0 0.0
-1059.99982 -320.00018 450.0
-880.0 -500.0 450.0
-1059.99982 -320.00018 0.0
-1500.00018 -320.00018 0.0
-1500.00018 -320.00018 450.0
-1059.99982 -320.00018 0.0
-1500.00018 -320.00018 450.0
-1059.99982 -320.00018 450.0
-1500.00018 -320.00018 0.0
-1500.00018 -89.99991 0.0
-1500.00018 -89.99991 450.0
-1500.00018 -320.00018 0.0
-1500.00018 -89.99991 450.0
-1500.00018 -320.00018 450.0
-1500.00018 -89.99991 0.0
-1190.00009 -89.99991 0.0
-1190.00009 -89.99991 450.0
-1500.00018 -89.99991 0.0
-1190.00009 -89.99991 450.0
-1500.00018 -89.99991 450.0
-1190.00009 -89.99991 0.0
-1190.00009 89.99991 0.0
-1190.00009 89.99991 450.0
-1190.00009 -89.99991 0.0
-1190.00009 89.99991 450.0
-1190.00009 -89.99991 450.0
-1190.00009 89.99991 0.0
-1500.00018 89.99991 0.0
-1500.00018 89.99991 450.0
-1190.00009 89.99991 0.0
-1500.00018 89.99991 450.0
-1190.00009 89.99991 450.0
-1500.00018 89.99991 0.0
-1500.00018 320.00018 0.0
-1500.00018 320.00018 450.0
-1500.00018 89.99991 0.0
-1500.00018 320.00018 450.0
-1500.00018 89.99991 450.0
-1500.00018 320.00018 0.0
-1059.99982 320.00018 0.0
-1059.99982 320.00018 450.0
-1500.00018 320.00018 0.0
-1059.99982 320.00018 450.0
-1500.00018 320.00018 450.0
-1059.99982 320.00018 0.0
-880.0 500.0 0.0
-880.0 500.0 450.0
-1059.99982 320.00018 0.0
-880.0 500.0 450.0
-1059.99982 320.00018 450.0
-880.0 500.0 0.0
-1680.0 500.0 0.0
-1680.0 500.0 450.0
-880.0 500.0 0.0
-1680.0 500.0 450.0
-880.0 500.0 450.0
-1680.0 500.0 0.0
-1680.0 -500.0 0.0
-1680.0 -500.0 450.0
-1680.0 500.0 0.0
-1680.0 -500.0 450.0
-1680.0 500.0 450.0
-680.0 -500.0 0.0
-500.00018 -500.0 0.0
-500.00018 119.304153594 0.0
-280.0 -290.695936406 0.0
-59.99982 119.304153594 0.0
-59.99982 -500.0 0.0
120.0 -500.0 0.0
120.0 500.0 0.0
-59.99982 500.0 0.0
-280.0 89.99991 0.0
-500.00018 500.0 0.0
-680.0 500.0 0.0
-680.0 -500.0 450.0
-500.00018 -500.0 450.0
-500.00018 119.304153594 450.0
-280.0 -290.695936406 450.0
-59.99982 119.304153594 450.0
-59.99982 -500.0 450.0
120.0 -500.0 450.0
120.0 500.0 450.0
-59.99982 500.0 450.0
-280.0 89.99991 450.0
-500.00018 500.0 450.0
-680.0 500.0 450.0
-680.0 -500.0 0.0
-500.00018 -500.0 0.0
-500.00018 -500.0 450.0
-680.0 -500.0 0.0
-500.00018 -500.0 450.0
-680.0 -500.0 450.0
-500.00018 -500.0 0.0
-500.00018 119.304153594 0.0
-500.00018 119.304153594 450.0
-500.00018 -500.0 0.0
-500.00018 119.304153594 450.0
-500.00018 -500.0 450.0
-500.00018 119.304153594 0.0
-280.0 -290.695936406 0.0
-280.0 -290.695936406 450.0
-500.00018 119.304153594 0.0
-280.0 -290.695936406 450.0
-500.00018 119.304153594 450.0
-280.0 -290.695936406 0.0
-59.99982 119.304153594 0.0
-59.99982 119.304153594 450.0
-280.0 -290.695936406 0.0
-59.99982 119.304153594 450.0
-280.0 -290.695936406 450.0
-59.99982 119.304153594 0.0
-59.99982 -500.0 0.0
-59.99982 -500.0 450.0
-59.99982 119.304153594 0.0
-59.99982 -500.0 450.0
-59.99982 119.304153594 450.0
-59.99982 -500.0 0.0
120.0 -500.0 0.0
120.0 -500.0 450.0
-59.99982 -500.0 0.0
120.0 -500.0 450.0
-59.99982 -500.0 450.0
120.0 -500.0 0.0
120.0 500.0 0.0
120.0 500.0 450.0
120.0 -500.0 0.0
120.0 500.0 450.0
120.0 -500.0 450.0
120.0 500.0 0.0
-59.99982 500.0 0.0
-59.99982 500.0 450.0
120.0 500.0 0.0
-59.99982 500.0 450.0
120.0 500.0 450.0
-59.99982 500.0 0.0
-280.0 89.99991 0.0
-280.0 89.99991 450.0
-59.99982 500.0 0.0
-280.0 89.99991 450.0
-59.99982 500.0 450.0
-280.0 89.99991 0.0
-500.00018 500.0 0.0
-500.00018 500.0 450.0
-280.0 89.99991 0.0
-500.00018 500.0 450.0
-280.0 89.99991 450.0
-500.00018 500.0 0.0
-680.0 500.0 0.0
-680.0 500.0 450.0
-500.00018 500.0 0.0
-680.0 500.0 450.0
-500.00018 500.0 450.0
-680.0 500.0 0.0
-680.0 -500.0 0.0
-680.0 -500.0 450.0
-680.0 500.0 0.0
-680.0 -500.0 450.0
-680.0 500.0 450.0
508.375 -500.0 0.0
931.625 -500.0 0.0
1120.0 -311.625 0.0
1120.0 311.625 0.0
931.625 500.0 0.0
508.375 500.0 0.0
320.0 311.625 0.0
320.0 -311.625 0.0
582.933384037 -320.00018 0.0
499.99982 -237.066615963 0.0
499.99982 237.066615963 0.0
582.933384037 320.00018 0.0
857.066615963 320.00018 0.0
940.00018 237.066615963 0.0
940.00018 -237.066615963 0.0
857.066615963 -320.00018 0.0
508.375 -500.0 450.0
931.625 -500.0 450.0
1120.0 -311.625 450.0
1120.0 311.625 450.0
931.625 500.0 450.0
508.375 500.0 450.0
320.0 311.625 450.0
320.0 -311.625 450.0
582.933384037 -320.00018 450.0
499.99982 -237.066615963 450.0
499.99982 237.066615963 450.0
582.933384037 320.00018 450.0
857.066615963 320.00018 450.0
940.00018 237.066615963 450.0
940.00018 -237.066615963 450.0
857.066615963 -320.00018 450.0
508.375 -500.0 0.0
931.625 -500.0 0.0
931.625 -500.0 450.0
508.375 -500.0 0.0
931.625 -500.0 450.0
508.375 -500.0 450.0
931.625 -500.0 0.0
1120.0 -311.625 0.0
1120.0 -311.625 450.0
931.625 -500.0 0.0
1120.0 -311.625 450.0
931.625 -500.0 450.0
1120.0 -311.625 0.0
1120.0 311.625 0.0
1120.0 311.625 450.0
1120.0 -311.625 0.0
1120.0 311.625 450.0
1120.0 -311.625 450.0
1120.0 311.625 0.0
931.625 500.0 0.0
931.625 500.0 450.0
1120.0 311.625 0.0
931.625 500.0 450.0
1120.0 311.625 450.0
931.625 500.0 0.0
508.375 500.0 0.0
508.375 500.0 450.0
931.625 500.0 0.0
508.375 500.0 450.0
931.625 500.0 450.0
508.375 500.0 0.0
320.0 311.625 0.0
320.0 311.625 450.0
508.375 500.0 0.0
320.0 311.625 450.0
508.375 500.0 450.0
320.0 311.625 0.0
320.0 -311.625 0.0
320.0 -311.625 450.0
320.0 311.625 0.0
320.0 -311.625 450.0
320.0 311.625 450.0
320.0 -311.625 0.0
508.375 -500.0 0.0
508.375 -500.0 450.0
320.0 -311.625 0.0
508.375 -500.0 450.0
320.0 -311.625 450.0
582.933384037 -320.00018 0.0
499.99982 -237.066615963 0.0
499.99982 -237.066615963 450.0
582.933384037 -320.00018 0.0
499.99982 -237.066615963 450.0
582.933384037 -320.00018 450.0
499.99982 -237.066615963 0.0
499.99982 237.066615963 0.0
499.99982 237.066615963 450.0
499.99982 -237.066615963 0.0
499.99982 237.066615963 450.0
499.99982 -237.066615963 450.0
499.99982 237.066615963 0.0
582.933384037 320.00018 0.0
582.933384037 320.00018 450.0
499.99982 237.066615963 0.0
582.933384037 320.00018 450.0
499.99982 237.066615963 450.0
582.933384037 320.00018 0.0
857.066615963 320.00018 0.0
857.066615963 320.00018 450.0
582.933384037 320.00018 0.0
857.066615963 320.00018 450.0
582.933384037 320.00018 450.0
857.066615963 320.00018 0.0
940.00018 237.066615963 0.0
940.00018 237.066615963 450.0
857.066615963 320.00018 0.0
940.00018 237.066615963 450.0
857.066615963 320.00018 450.0
940.00018 237.066615963 0.0
940.00018 -237.066615963 0.0
940.00018 -237.066615963 450.0
940.00018 237.066615963 0.0
940.00018 -237.066615963 450.0
940.00018 237.066615963 450.0
940.00018 -237.066615963 0.0
857.066615963 -320.00018 0.0
857.066615963 -320.00018 450.0
940.00018 -237.066615963 0.0
857.066615963 -320.00018 450.0
940.00018 -237.066615963 450.0
857.066615963 -320.00018 0.0
582.933384037 -320.00018 0.0
582.933384037 -320.00018 450.0
857.066615963 -320.00018 0.0
582.933384037 -320.00018 450.0
857.066615963 -320.00018 450.0
1880.0 -500.0 0.0
1995.256121018 -500.0 0.0
2280.0 -144.070151272 0.0
2564.743878982 -500.0 0.0
2680.0 -500.0 0.0
2680.0 -355.929848728 0.0
2395.256121018 0.0 0.0
2680.0 355.929848728 0.0
2680.0 500.0 0.0
2564.743878982 500.0 0.0
2280.0 144.070151272 0.0
1995.256121018 500.0 0.0
1880.0 500.0 0.0
1880.0 355.929848728 0.0
2164.743878982 0.0 0.0
1880.0 -355.929848728 0.0
1880.0 -500.0 450.0
1995.256121018 -500.0 450.0
2280.0 -144.070151272 450.0
2564.743878982 -500.0 450.0
2680.0 -500.0 450.0
2680.0 -355.929848728 450.0
2395.256121018 0.0 450.0
2680.0 355.929848728 450.0
2680.0 500.0 450.0
2564.743878982 500.0 450.0
2280.0 144.070151272 450.0
1995.256121018 500.0 450.0
1880.0 500.0 450.0
1880.0 355.929848728 450.0
2164.743878982 0.0 450.0
1880.0 -355.929848728 450.0
1880.0 -500.0 0.0
1995.256121018 -500.0 0.0
1995.256121018 -500.0 450.0
1880.0 -500.0 0.0
1995.256121018 -500.0 450.0
1880.0 -500.0 450.0
1995.256121018 -500.0 0.0
2280.0 -144.070151272 0.0
2280.0 -144.070151272 450.0
1995.256121018 -500.0 0.0
2280.0 -144.070151272 450.0
1995.256121018 -500.0 450.0
2280.0 -144.070151272 0.0
2564.743878982 -500.0 0.0
2564.743878982 -500.0 450.0
2280.0 -144.070151272 0.0
2564.743878982 -500.0 450.0
2280.0 -144.070151272 450.0
2564.743878982 -500.0 0.0
2680.0 -500.0 0.0
2680.0 -500.0 450.0
2564.743878982 -500.0 0.0
2680.0 -500.0 450.0
2564.743878982 -500.0 450.0
2680.0 -500.0 0.0
2680.0 -355.929848728 0.0
2680.0 -355.929848728 450.0
2680.0 -500.0 0.0
2680.0 -355.929848728 450.0
2680.0 -500.0 450.0
2680.0 -355.929848728 0.0
2395.256121018 0.0 0.0
2395.256121018 0.0 450.0
2680.0 -355.929848728 0.0
2395.256121018 0.0 450.0
2680.0 -355.929848728 450.0
2395.256121018 0.0 0.0
2680.0 355.929848728 0.0
2680.0 355.929848728 450.0
2395.256121018 0.0 0.0
2680.0 355.929848728 450.0
2395.256121018 0.0 450.0
2680.0 355.929848728 0.0
2680.0 500.0 0.0
2680.0 500.0 450.0
2680.0 355.929848728 0.0
2680.0 500.0 450.0
2680.0 355.929848728 450.0
2680.0 500.0 0.0
2564.743878982 500.0 0.0
2564.743878982 500.0 450.0
2680.0 500.0 0.0
2564.743878982 500.0 450.0
2680.0 500.0 450.0
2564.743878982 500.0 0.0
2280.0 144.070151272 0.0
2280.0 144.070151272 450.0
2564.743878982 500.0 0.0
2280.0 144.070151272 450.0
2564.743878982 500.0 450.0
2280.0 144.070151272 0.0
1995.256121018 500.0 0.0
1995.256121018 500.0 450.0
2280.0 144.070151272 0.0
1995.256121018 500.0 450.0
2280.0 144.070151272 450.0
1995.256121018 500.0 0.0
1880.0 500.0 0.0
1880.0 500.0 450.0
1995.256121018 500.0 0.0
1880.0 500.0 450.0
1995.256121018 500.0 450.0
1880.0 500.0 0.0
1880.0 355.929848728 0.0
1880.0 355.929848728 450.0
1880.0 500.0 0.0
1880.0 355.929848728 450.0
1880.0 500.0 450.0
1880.0 355.929848728 0.0
2164.743878982 0.0 0.0
2164.743878982 0.0 450.0
1880.0 355.929848728 0.0
2164.743878982 0.0 450.0
1880.0 355.929848728 450.0
2164.743878982 0.0 0.0
1880.0 -355.929848728 0.0
1880.0 -355.929848728 450.0
2164.743878982 0.0 0.0
1880.0 -355.929848728 450.0
2164.743878982 0.0 450.0
1880.0 -355.929848728 0.0
1880.0 -500.0 0.0
1880.0 -500.0 450.0
1880.0 -355.929848728 0.0
1880.0 -500.0 450.0
1880.0 -355.929848728 450.0
3 1 2 12
3 1 12 7
3 24 14 13
3 19 24 13
3 2 3 11
3 2 11 12
3 23 15 14
3 24 23 14
3 3 4 10
3 3 10 11
3 22 16 15
3 23 22 15
3 4 5 9
3 4 9 10
3 21 17 16
3 22 21 16
3 5 6 8
3 5 8 9
3 20 18 17
3 21 20 17
3 6 1 7
3 6 7 8
3 19 13 18
3 20 19 18
3 1 2 12
3 1 12 7
3 24 14 13
3 19 24 13
3 2 3 11
3 2 11 12
3 23 15 14
3 24 23 14
3 3 4 10
3 3 10 11
3 22 16 15
3 23 22 15
3 4 5 9
3 4 9 10
3 21 17 16
3 22 21 16
3 5 6 8
3 5 8 9
3 20 18 17
3 21 20 17
3 6 1 7
3 6 7 8
3 19 13 18
3 20 19 18
3 27 26 25
3 30 29 28
3 33 32 31
3 36 35 34
3 39 38 37
3 42 41 40
3 45 44 43
3 48 47 46
3 51 50 49
3 54 53 52
3 57 56 55
3 60 59 58
3 63 62 61
3 66 65 64
3 69 68 67
3 72 71 70
3 75 74 73
3 78 77 76
3 81 80 79
3 84 83 82
3 87 86 85
3 90 89 88
3 93 92 91
3 96 95 94
3 99 100 97
3 99 97 98
3 109 112 111
3 110 109 111
3 100 105 108
3 100 108 97
3 120 117 112
3 109 120 112
3 105 106 107
3 105 107 108
3 119 118 117
3 120 119 117
3 101 102 103
3 101 103 104
3 115 114 113
3 116 115 113
3 99 100 97
3 99 97 98
3 109 112 111
3 110 109 111
3 100 105 108
3 100 108 97
3 120 117 112
3 109 120 112
3 105 106 107
3 105 107 108
3 119 118 117
3 120 119 117
3 101 102 103
3 101 103 104
3 115 114 113
3 116 115 113
3 123 122 121
3 126 125 124
3 129 128 127
3 132 131 130
3 135 134 133
3 138 137 136
3 141 140 139
3 144 143 142
3 147 146 145
3 150 149 148
3 153 152 151
3 156 155 154
3 159 158 157
3 162 161 160
3 165 164 163
3 168 167 166
3 171 170 169
3 174 173 172
3 177 176 175
3 180 179 178
3 183 182 181
3 186 185 184
3 189 188 187
3 192 191 190
3 194 203 204
3 194 204 193
3 216 215 206
3 205 216 206
3 195 196 202
3 195 202 203
3 214 208 207
3 215 214 207
3 196 197 201
3 196 201 202
3 213 209 208
3 214 213 208
3 201 198 199
3 201 199 200
3 211 210 213
3 212 211 213
3 194 203 204
3 194 204 193
3 216 215 206
3 205 216 206
3 195 196 202
3 195 202 203
3 214 208 207
3 215 214 207
3 196 197 201
3 196 201 202
3 213 209 208
3 214 213 208
3 201 198 199
3 201 199 200
3 211 210 213
3 212 211 213
3 219 218 217
3 222 221 220
3 225 224 223
3 228 227 226
3 231 230 229
3 234 233 232
3 237 236 235
3 240 239 238
3 243 242 241
3 246 245 244
3 249 248 247
3 252 251 250
3 255 254 253
3 258 257 256
3 261 260 259
3 264 263 262
3 267 266 265
3 270 269 268
3 273 272 271
3 276 275 274
3 279 278 277
3 282 281 280
3 285 284 283
3 288 287 286
3 289 290 304
3 289 304 297
3 320 306 305
3 313 320 305
3 290 291 303
3 290 303 304
3 319 307 306
3 320 319 306
3 291 292 302
3 291 302 303
3 318 308 307
3 319 318 307
3 292 293 301
3 292 301 302
3 317 309 308
3 318 317 308
3 293 294 300
3 293 300 301
3 316 310 309
3 317 316 309
3 294 295 299
3 294 299 300
3 315 311 310
3 316 315 310
3 295 296 298
3 295 298 299
3 314 312 311
3 315 314 311
3 296 289 297
3 296 297 298
3 313 305 312
3 314 313 312
3 289 290 304
3 289 304 297
3 320 306 305
3 313 320 305
3 290 291 303
3 290 303 304
3 319 307 306
3 320 319 306
3 291 292 302
3 291 302 303
3 318 308 307
3 319 318 307
3 292 293 301
3 292 301 302
3 317 309 308
3 318 317 308
3 293 294 300
3 293 300 301
3 316 310 309
3 317 316 309
3 294 295 299
3 294 299 300
3 315 311 310
3 316 315 310
3 295 296 298
3 295 298 299
3 314 312 311
3 315 314 311
3 296 289 297
3 296 297 298
3 313 305 312
3 314 313 312
3 323 322 321
3 326 325 324
3 329 328 327
3 332 331 330
3 335 334 333
3 338 337 336
3 341 340 339
3 344 343 342
3 347 346 345
3 350 349 348
3 353 352 351
3 356 355 354
3 359 358 357
3 362 361 360
3 365 364 363
3 368 367 366
3 371 370 369
3 374 373 372
3 377 376 375
3 380 379 378
3 383 382 381
3 386 385 384
3 389 388 387
3 392 391 390
3 395 394 393
3 398 397 396
3 401 400 399
3 404 403 402
3 407 406 405
3 410 409 408
3 413 412 411
3 416 415 414
3 417 418 432
3 448 434 433
3 418 419 431
3 418 431 432
3 447 435 434
3 448 447 434
3 419 420 422
3 419 422 423
3 438 436 435
3 439 438 435
3 420 421 422
3 438 437 436
3 423 424 426
3 423 426 427
3 442 440 439
3 443 442 439
3 424 425 426
3 442 441 440
3 427 428 430
3 427 430 431
3 446 444 443
3 447 446 443
3 428 429 430
3 446 445 444
3 419 423 427
3 419 427 431
3 443 439 435
3 447 443 435
3 417 418 432
3 448 434 433
3 418 419 431
3 418 431 432
3 447 435 434
3 448 447 434
3 419 420 422
3 419 422 423
3 438 436 435
3 439 438 435
3 420 421 422
3 438 437 436
3 423 424 426
3 423 426 427
3 442 440 439
3 443 442 439
3 424 425 426
3 442 441 440
3 427 428 430
3 427 430 431
3 446 444 443
3 447 446 443
3 428 429 430
3 446 445 444
3 419 423 427
3 419 427 431
3 443 439 435
3 447 443 435
3 451 450 449
3 454 453 452
3 457 456 455
3 460 459 458
3 463 462 461
3 466 465 464
3 469 468 467
3 472 471 470
3 475 474 473
3 478 477 476
3 481 480 479
3 484 483 482
3 487 486 485
3 490 489 488
3 493 492 491
3 496 495 494
3 499 498 497
3 502 501 500
3 505 504 503
3 508 507 506
3 511 510 509
3 514 513 512
3 517 516 515
3 520 519 518
3 523 522 521
3 526 525 524
3 529 528 527
3 532 531 530
3 535 534 533
3 538 537 536
3 541 540 539
3 544 543 542
