ply
format ascii 1.0
comment VCGLIB generated
element vertex 108
property float x
property float y
property float z
element face 36
property list uchar int vertex_indices
end_header
-0.006271 -1.280145 -0.432495 
1.085234 -0.643941 -0.460897 
1.500288 -0.863396 -0.007092 
-0.006271 -1.280145 -0.432495 
1.500288 -0.863396 -0.007092 
0.000966 -1.727679 0.031745 
1.08452 0.627823 -0.484266 
1.500288 -0.863396 -0.007092 
1.085234 -0.643941 -0.460897 
1.08452 0.627823 -0.484266 
1.499319 0.864283 -0.038838 
1.500288 -0.863396 -0.007092 
1.499319 0.864283 -0.038838 
1.099193 -0.627177 0.450828 
1.500288 -0.863396 -0.007092 
1.499319 0.864283 -0.038838 
1.098478 0.644587 0.427459 
1.099193 -0.627177 0.450828 
1.098478 0.644587 0.427459 
1.085234 -0.643941 -0.460897 
1.099193 -0.627177 0.450828 
1.098478 0.644587 0.427459 
1.08452 0.627823 -0.484266 
1.085234 -0.643941 -0.460897 
0.007687 -1.263382 0.479231 
1.085234 -0.643941 -0.460897 
-0.006271 -1.280145 -0.432495 
0.007687 -1.263382 0.479231 
1.099193 -0.627177 0.450828 
1.085234 -0.643941 -0.460897 
-1.084529 -0.627823 0.484264 
-0.006271 -1.280145 -0.432495 
-1.098487 -0.644587 -0.427461 
-1.084529 -0.627823 0.484264 
0.007687 -1.263382 0.479231 
-0.006271 -1.280145 -0.432495 
0.000966 -1.727679 0.031745 
1.500288 -0.863396 -0.007092 
0.007687 -1.263382 0.479231 
1.500288 -0.863396 -0.007092 
1.099193 -0.627177 0.450828 
0.007687 -1.263382 0.479231 
0.000966 -1.727679 0.031745 
-1.499328 -0.864283 0.038836 
-1.098487 -0.644587 -0.427461 
0.000966 -1.727679 0.031745 
-1.098487 -0.644587 -0.427461 
-0.006271 -1.280145 -0.432495 
-1.0992 0.627177 -0.45083 
-1.084529 -0.627823 0.484264 
-1.098487 -0.644587 -0.427461 
-1.0992 0.627177 -0.45083 
-1.08524 0.643941 0.460895 
-1.084529 -0.627823 0.484264 
0.006262 1.280145 0.432493 
-1.0992 0.627177 -0.45083 
-0.007698 1.263381 -0.479232 
0.006262 1.280145 0.432493 
-1.08524 0.643941 0.460895 
-1.0992 0.627177 -0.45083 
-1.084529 -0.627823 0.484264 
-1.499328 -0.864283 0.038836 
0.000966 -1.727679 0.031745 
-1.500297 0.863396 0.00709 
-1.08524 0.643941 0.460895 
0.006262 1.280145 0.432493 
1.098478 0.644587 0.427459 
-0.007698 1.263381 -0.479232 
1.08452 0.627823 -0.484266 
1.098478 0.644587 0.427459 
0.006262 1.280145 0.432493 
-0.007698 1.263381 -0.479232 
-0.000973 1.727679 -0.031747 
1.499319 0.864283 -0.038838 
1.08452 0.627823 -0.484266 
0.006262 1.280145 0.432493 
1.098478 0.644587 0.427459 
-0.000973 1.727679 -0.031747 
1.098478 0.644587 0.427459 
1.499319 0.864283 -0.038838 
-0.000973 1.727679 -0.031747 
-0.000973 1.727679 -0.031747 
1.08452 0.627823 -0.484266 
-0.007698 1.263381 -0.479232 
-0.007698 1.263381 -0.479232 
-1.500297 0.863396 0.00709 
-0.000973 1.727679 -0.031747 
-0.007698 1.263381 -0.479232 
-1.0992 0.627177 -0.45083 
-1.500297 0.863396 0.00709 
0.007687 -1.263382 0.479231 
-1.084529 -0.627823 0.484264 
0.000966 -1.727679 0.031745 
-0.000973 1.727679 -0.031747 
-1.500297 0.863396 0.00709 
0.006262 1.280145 0.432493 
-1.500297 0.863396 0.00709 
-1.098487 -0.644587 -0.427461 
-1.499328 -0.864283 0.038836 
-1.500297 0.863396 0.00709 
-1.0992 0.627177 -0.45083 
-1.098487 -0.644587 -0.427461 
-1.08524 0.643941 0.460895 
-1.499328 -0.864283 0.038836 
-1.084529 -0.627823 0.484264 
-1.08524 0.643941 0.460895 
-1.500297 0.863396 0.00709 
-1.499328 -0.864283 0.038836 
3 0 1 2 
3 3 4 5 
3 6 7 8 
3 9 10 11 
3 12 13 14 
3 15 16 17 
3 18 19 20 
3 21 22 23 
3 24 25 26 
3 27 28 29 
3 30 31 32 
3 33 34 35 
3 36 37 38 
3 39 40 41 
3 42 43 44 
3 45 46 47 
3 48 49 50 
3 51 52 53 
3 54 55 56 
3 57 58 59 
3 60 61 62 
3 63 64 65 
3 66 67 68 
3 69 70 71 
3 72 73 74 
3 75 76 77 
3 78 79 80 
3 81 82 83 
3 84 85 86 
3 87 88 89 
3 90 91 92 
3 93 94 95 
3 96 97 98 
3 99 100 101 
3 102 103 104 
3 105 106 107 
