ply
format ascii 1.0
comment VCGLIB generated
element vertex 23
property float x
property float y
property float z
element face 42
property list uchar int vertex_indices
end_header
48.75049 233.658 168.2259 
99.16553 338.0483 109.4575 
-9.65918 411.4385 79.72705 
-84.34912 291.2355 122.695 
81.39111 98.39018 112.069 
126.6709 241.6323 120.7837 
-17.45557 4.205307 108.331 
-128.5923 354.1248 34.44324 
-8.758789 129.7151 161.501 
-141.8589 187.2927 115.9702 
-146.3662 114.4667 37.05481 
-184.8081 213.5452 21.00732 
-80.60352 313.7193 -116.874 
-130.4238 220.3513 -119.3516 
-122.8735 96.96715 -70.44202 
27.78418 5.985367 -31.68225 
157.0293 338.5824 -59.01782 
155.2148 87.02367 -21.29712 
184.8081 233.8974 -18.88989 
91.83936 111.6933 -138.6709 
10.95508 350.1309 -168.2258 
108.0068 275.9025 -91.78711 
40.49121 435.7947 -79.47485 
3 0 1 2 
3 7 2 22 
3 22 2 1 
3 18 16 1 
3 7 3 2 
3 18 21 16 
3 19 17 15 
3 0 5 1 
3 5 4 17 
3 20 12 22 
3 6 10 14 
3 19 15 14 
3 14 10 11 
3 13 20 19 
3 20 21 19 
3 0 8 4 
3 17 4 6 
3 9 3 7 
3 3 9 8 
3 11 13 14 
3 12 13 11 
3 4 8 6 
3 10 6 8 
3 7 11 9 
3 4 5 0 
3 10 8 9 
3 8 0 3 
3 2 3 0 
3 11 7 12 
3 17 18 5 
3 1 16 22 
3 14 15 6 
3 1 5 18 
3 22 12 7 
3 13 12 20 
3 19 14 13 
3 9 11 10 
3 19 21 18 
3 6 15 17 
3 22 16 21 
3 19 18 17 
3 22 21 20 
