ply
format ascii 1.0
comment VCGLIB generated
element vertex 63
property float x
property float y
property float z
element face 54
property list uchar int vertex_indices
end_header
-16.3664 -14.9577 15.3934 
-16.3664 -14.9577 15.3934 
16.3664 -14.9577 15.3934 
16.3664 -14.9577 15.3934 
-8.09638 3.45888 33.1882 
-8.09638 3.45888 33.1882 
8.09639 3.45888 33.1882 
8.09639 3.45888 33.1882 
-12.6203 6.60214 15.3934 
-12.6203 6.60214 15.3934 
12.6203 6.60214 15.3934 
12.6203 6.60214 15.3934 
-13.272 3.64369 -65.3098 
-13.272 3.64369 -65.3098 
13.272 3.64369 -65.3098 
13.272 3.64369 -65.3098 
-33.0556 5.79457 -120.469 
33.0556 5.79457 -120.469 
1e-06 -15.1257 63.5376 
5.00849 -6.79701 41.2419 
5.00849 -6.79701 41.2419 
5.00849 -6.79701 41.2419 
-5.00848 -6.79701 41.2419 
-5.00848 -6.79701 41.2419 
-5.00848 -6.79701 41.2419 
1e-06 -15.7391 37.3393 
1e-06 -15.7391 37.3393 
1e-06 -15.7391 37.3393 
1e-06 -24.3487 -5.23045 
1e-06 -9.20706 -65.3098 
1e-06 -9.20706 -65.3098 
7.58487 -9.07976 -21.4672 
7.5191 3.83629 3.52854 
7.5191 3.83629 3.52854 
109.51 5.45987 0.810307 
7.5191 -0.006145 -61.5841 
7.5191 -0.006145 -61.5841 
75.7771 18.6217 3.90567 
75.7771 18.6217 3.90567 
75.7771 18.6217 3.90567 
207.435 -13.4419 -62.002 
67.4666 14.0936 -63.6077 
67.4666 14.0936 -63.6077 
67.4666 14.0936 -63.6077 
83.2038 5.82639 -29.8094 
83.2038 5.82639 -29.8094 
117.405 4.91508 -80.2472 
-7.56741 -9.07925 -21.4671 
-7.51943 3.83629 3.52854 
-7.51943 3.83629 3.52854 
-109.51 5.45987 0.800539 
-7.5132 -0.006145 -61.5841 
-7.5132 -0.006145 -61.5841 
-75.7775 18.6217 3.89913 
-75.7775 18.6217 3.89913 
-75.7775 18.6217 3.89913 
-207.429 -13.4419 -62.0212 
-67.4605 14.0936 -63.6135 
-67.4605 14.0936 -63.6135 
-67.4605 14.0936 -63.6135 
-83.1958 5.82656 -29.8167 
-83.1958 5.82656 -29.8167 
-117.397 4.91509 -80.2578 
3 14 2 30 
3 2 14 10 
3 12 10 14 
3 10 12 8 
3 0 8 12 
3 30 0 12 
3 0 30 28 
3 2 28 30 
3 28 2 25 
3 17 15 29 
3 15 17 16 
3 29 16 17 
3 16 29 13 
3 1 5 9 
3 5 1 24 
3 27 24 1 
3 3 21 27 
3 21 3 7 
3 11 7 3 
3 18 26 19 
3 26 18 22 
3 19 22 18 
3 20 4 23 
3 4 20 6 
3 6 8 4 
3 8 6 10 
3 0 28 25 
3 16 13 15 
3 46 44 43 
3 44 46 40 
3 34 40 46 
3 40 34 44 
3 37 44 34 
3 41 32 39 
3 32 41 35 
3 42 31 36 
3 31 42 45 
3 38 31 45 
3 31 38 33 
3 37 46 43 
3 46 37 34 
3 62 59 60 
3 59 62 54 
3 50 54 62 
3 54 50 60 
3 56 60 50 
3 60 56 62 
3 50 62 56 
3 47 58 52 
3 58 47 61 
3 55 61 47 
3 57 48 51 
3 48 57 53 
3 49 55 47 
