ply
format ascii 1.0
comment VCGLIB generated
element vertex 78
property float x
property float y
property float z
element face 147
property list uchar int vertex_indices
end_header
0.0785191 2.53215 2.84334 
-0.0791744 2.68672 2.81381 
-0.0789738 2.53198 2.84334 
0.078314 2.68649 2.81381 
0.156962 2.71237 2.52838 
0.157361 2.4029 2.58744 
-0.157618 2.40295 2.58744 
-0.0397781 2.37877 1.83035 
-0.0396775 2.45633 1.81578 
-0.158019 2.71243 2.52838 
0.0390653 2.45622 1.81578 
0.038972 2.37905 1.83035 
-0.0400844 2.07639 0.244917 
0.0386657 2.07667 0.244917 
-0.0792775 1.91974 -0.3665 
0.078215 1.91991 -0.3665 
0.038759 2.15384 0.229956 
0.0780144 2.07465 -0.396028 
-0.0399839 2.15395 0.229956 
-0.0794781 2.07448 -0.396028 
1.18115 0.207198 1.56539 
1.18121 0.0398595 1.25555 
1.49614 0.207531 1.56539 
0.866344 0.394268 1.24452 
1.18118 0.485164 1.63547 
0.905598 0.866291 1.22956 
1.49617 0.485502 1.63547 
1.4962 0.0401969 1.25555 
1.73203 -0.0290382 -0.947996 
1.18082 -0.0290382 -0.947996 
0.905204 0.521785 -0.965319 
-0.905944 0.521223 -0.964926 
-0.866062 0.393594 1.24492 
-0.905551 0.865729 1.22996 
0.000195663 0.674264 2.65397 
0.432839 1.42685 1.5272 
0.472038 1.65279 -0.0554768 
1.18058 1.19073 -0.986185 
1.45575 2.21994 -2.08225 
1.49619 0.866629 1.22956 
2.0467 0.942626 -1.37241 
1.73185 0.781253 -1.48579 
1.7318 0.466666 -1.47595 
1.73212 0.11625 -1.34642 
1.1809 0.115852 -1.34642 
1.18057 0.466273 -1.47556 
1.18063 0.781253 -1.4854 
1.18056 0.981661 -1.37359 
-1.18178 1.19017 -0.985792 
-1.18141 0.981094 -1.37319 
-1.18174 0.780301 -1.4854 
-1.1814 0.465706 -1.47516 
-1.18147 0.11529 -1.34603 
-1.18116 -0.0299986 -0.947603 
-1.73237 -0.0299986 -0.947603 
-1.73269 0.114896 -1.34603 
-1.49578 0.48426 1.63586 
-1.73262 0.465316 -1.47516 
-1.73256 0.780293 -1.485 
-2.04767 0.941385 -1.37201 
-1.73261 1.18977 -0.985792 
-1.49614 0.865392 1.22996 
-1.45784 2.21898 -2.08185 
-1.18079 0.484598 1.63586 
-1.18082 0.206631 1.56578 
-1.4958 0.20629 1.56578 
-1.49574 0.039349 1.25594 
-1.18076 0.0392927 1.25594 
-0.472908 1.65257 -0.0554768 
-0.433362 1.42651 1.5272 
-0.197428 2.22702 -0.585398 
-0.788088 1.66956 -2.02516 
-0.00087428 1.88971 -2.54445 
0.196303 2.22724 -0.585398 
0.786429 1.67007 -2.02556 
0.353671 1.35531 -2.01532 
-0.355039 1.35514 -2.01532 
1.7318 1.19073 -0.986579 
3 0 1 2 
3 1 0 3 
3 0 4 3 
3 0 5 4 
3 2 5 0 
3 6 5 2 
3 6 7 5 
3 6 8 7 
3 6 9 8 
3 1 9 6 
3 9 1 3 
3 9 3 4 
3 9 4 10 
3 4 11 10 
3 5 11 4 
3 7 11 5 
3 12 11 7 
3 11 12 13 
3 14 13 12 
3 14 15 13 
3 13 15 16 
3 16 15 17 
3 18 16 17 
3 18 10 16 
3 10 18 8 
3 12 8 18 
3 8 12 7 
3 12 18 19 
3 19 18 17 
3 12 19 14 
3 9 10 8 
3 10 13 16 
3 13 10 11 
3 2 1 6 
3 20 21 22 
3 20 23 21 
3 24 23 20 
3 24 25 23 
3 25 24 26 
3 26 24 20 
3 26 20 22 
3 26 22 27 
3 21 27 22 
3 21 28 27 
3 21 29 28 
3 21 23 29 
3 23 30 29 
3 23 31 30 
3 31 23 32 
3 25 32 23 
3 25 33 32 
3 33 25 34 
3 34 25 35 
3 35 25 36 
3 36 25 37 
3 25 38 37 
3 25 39 38 
3 25 26 39 
3 26 40 39 
3 26 41 40 
3 26 42 41 
3 26 28 42 
3 26 27 28 
3 28 43 42 
3 29 43 28 
3 43 29 44 
3 29 45 44 
3 29 30 45 
3 30 46 45 
3 30 47 46 
3 30 37 47 
3 30 48 37 
3 48 30 31 
3 31 49 48 
3 31 50 49 
3 31 51 50 
3 31 52 51 
3 53 52 31 
3 54 52 53 
3 52 54 55 
3 56 55 54 
3 56 57 55 
3 56 58 57 
3 59 58 56 
3 49 58 59 
3 49 50 58 
3 50 51 58 
3 58 51 57 
3 52 57 51 
3 57 52 55 
3 59 60 49 
3 61 60 59 
3 61 62 60 
3 61 33 62 
3 61 63 33 
3 61 56 63 
3 56 61 59 
3 56 64 63 
3 64 56 65 
3 56 54 65 
3 65 54 66 
3 54 67 66 
3 67 54 53 
3 67 53 32 
3 32 53 31 
3 64 67 32 
3 66 67 64 
3 63 64 67 
3 63 67 32 
3 63 32 33 
3 65 66 64 
3 33 48 62 
3 33 68 48 
3 69 68 33 
3 68 69 36 
3 69 35 36 
3 69 34 35 
3 34 69 33 
3 70 68 36 
3 68 70 71 
3 71 70 72 
3 70 73 72 
3 73 70 36 
3 36 74 73 
3 36 37 74 
3 75 74 37 
3 74 75 71 
3 71 75 76 
3 48 76 75 
3 48 71 76 
3 48 68 71 
3 48 75 37 
3 71 72 74 
3 72 73 74 
3 60 62 48 
3 60 48 49 
3 37 77 47 
3 37 38 77 
3 39 77 38 
3 39 40 77 
3 47 77 40 
3 47 40 41 
3 47 41 46 
3 42 46 41 
3 46 42 45 
3 43 45 42 
3 45 43 44 
