ply
format ascii 1.0
comment VCGLIB generated
element vertex 34
property float x
property float y
property float z
element face 64
property list uchar int vertex_indices
end_header
-5.159354 1926.186 -78.97637 
-402.5431 1635.118 561.6042 
-5.297889 1789.518 498.531 
-397.0161 1036.067 -870.0947 
0.229146 1190.467 -933.1679 
-646.8298 1447.83 -523.0257 
-913.0267 1079.87 271.6425 
-648.9381 1676.334 23.08581 
-565.7463 1267.066 714.9775 
-910.9183 851.366 -274.469 
-560.2199 668.0149 -716.7227 
-393.4333 301.7808 -562.8389 
-3.415248 1340.802 884.6643 
393.4329 1639.502 562.838 
643.1315 1454.936 -521.0264 
913.0259 861.4133 -271.6443 
641.0229 1683.44 25.08514 
398.9599 1040.452 -868.861 
-3.051234 1697.682 -625.0889 
646.8293 493.4532 523.0248 
3.050543 243.6007 625.087 
5.297085 151.7654 -498.5328 
5.158924 15.0968 78.97549 
648.9376 264.9492 -23.08667 
397.0161 905.2162 870.0947 
3.414631 600.4807 -884.6656 
402.5422 306.1654 -561.606 
565.7459 674.2175 -714.9785 
560.2197 1273.268 716.7222 
910.9178 1089.917 274.4682 
-398.9603 900.8315 868.86 
-0.229146 750.8164 933.1679 
-641.0238 257.8434 -25.0869 
-643.1318 486.3474 521.0255 
3 1 0 7 
3 1 2 0 
3 7 18 5 
3 7 0 18 
3 5 4 3 
3 5 18 4 
3 2 1 12 
3 3 4 25 
3 8 7 6 
3 8 1 7 
3 6 5 9 
3 6 7 5 
3 9 3 10 
3 9 5 3 
3 10 3 25 
3 11 10 25 
3 13 28 29 
3 13 2 12 
3 13 29 16 
3 28 13 12 
3 16 15 14 
3 16 29 15 
3 14 27 17 
3 14 15 27 
3 2 13 16 
3 17 27 25 
3 0 16 14 
3 2 16 0 
3 18 14 17 
3 0 14 18 
3 4 17 25 
3 18 17 4 
3 31 24 12 
3 1 8 12 
3 24 20 19 
3 24 31 20 
3 19 22 23 
3 19 20 22 
3 23 21 26 
3 23 22 21 
3 24 28 12 
3 27 26 25 
3 28 19 29 
3 28 24 19 
3 29 23 15 
3 29 19 23 
3 15 26 27 
3 15 23 26 
3 30 8 6 
3 26 21 25 
3 33 6 9 
3 30 6 33 
3 32 9 10 
3 33 9 32 
3 8 30 12 
3 32 10 11 
3 31 30 33 
3 30 31 12 
3 20 33 32 
3 31 33 20 
3 22 11 21 
3 21 11 25 
3 20 32 22 
3 22 32 11 
