ply
format ascii 1.0
comment VCGLIB generated
element vertex 13
property float x
property float y
property float z
element face 22
property list uchar int vertex_indices
end_header
10.17896 212.1566 67.95281 
31.1388 232.7103 -45.14474 
-11.28334 143.2754 -121.7708 
94.39093 182.2689 -52.04932 
-83.30428 202.3907 48.17216 
-47.84901 259.5439 3.24514 
-76.34319 213.1384 -58.5326 
-102.0303 107.4382 -37.11656 
-54.69751 105.0255 85.35605 
73.13718 149.4017 71.55003 
25.5166 2.399918 3.1724 
103.4257 55.67275 6.779366 
44.39119 24.72697 -70.0067 
3 6 5 1 
3 7 8 4 
3 8 9 0 
3 2 6 1 
3 0 4 8 
3 0 1 5 
3 6 4 5 
3 3 1 0 
3 3 2 1 
3 5 4 0 
3 7 4 6 
3 10 8 7 
3 11 9 10 
3 7 12 10 
3 12 2 3 
3 11 12 3 
3 11 3 9 
3 9 3 0 
3 6 2 7 
3 9 8 10 
3 12 11 10 
3 7 2 12 
