ply
format ascii 1.0
comment VCGLIB generated
element vertex 42
property float x
property float y
property float z
element face 72
property list uchar int vertex_indices
end_header
0.219753 1.146127 1.357929 
-2.158185 1.187826 0.6365826 
0.9412579 1.154276 -1.020205 
-1.43668 1.195974 -1.741551 
0.188472 -1.83579 1.341343 
-2.189466 -1.794091 0.6199969 
0.9099768 -1.827642 -1.036791 
-1.467961 -1.785943 -1.758137 
-4.466173 -5.444459 -2.481379 
-4.696252 4.550362 0.474296 
-4.359182 4.754507 -2.424654 
3.542192 4.405896 2.973424 
2.435249 3.220504 -1.423127 
-3.826855 -4.730406 -0.4029027 
-0.9376659 -4.541394 -9.507571 
4.294388 3.241499 -7.550986 
-4.79934 -5.27664 0.4196391 
-3.797295 3.938375 -0.371018 
3.075783 3.708991 1.709589 
2.987674 -4.690157 1.662873 
3.512602 4.236168 2.403707 
3.413179 -5.24143 2.350993 
5.366252 2.688472 -1.060064 
3.439103 -5.421107 2.918768 
-1.891439 4.782376 -10.55852 
-4.859559 -6.343912 -1.819108 
-4.733687 5.654871 -1.752372 
-1.998429 -5.416589 -10.61524 
-1.956331 -6.311126 -11.38836 
-1.83046 5.687658 -11.32162 
-2.969925 -4.564345 -2.809096 
5.299288 -3.694882 -1.095566 
-2.881815 3.834803 -2.762383 
6.888514 -3.676934 -6.333773 
-0.8495562 3.857753 -9.460856 
3.362716 -6.410944 -8.95733 
4.217255 -4.111355 -7.591882 
3.488587 5.587837 -8.890594 
6.955478 2.706418 -6.298269 
0.9918113 5.559639 -0.6610372 
2.358115 -4.13235 -1.464022 
0.8659402 -6.439143 -0.7277728 
3 2 1 0 
3 1 2 3 
3 4 2 0 
3 2 4 6 
3 1 4 0 
3 4 1 5 
3 6 5 7 
3 5 6 4 
3 3 6 7 
3 6 3 2 
3 5 3 7 
3 3 5 1 
3 38 33 15 
3 29 37 35 
3 33 36 15 
3 10 26 29 
3 10 24 32 
3 35 36 40 
3 23 13 21 
3 28 35 41 
3 28 29 35 
3 20 9 11 
3 17 18 13 
3 19 18 20 
3 31 40 36 
3 23 21 11 
3 8 10 32 
3 35 37 36 
3 17 16 9 
3 17 9 20 
3 8 30 14 
3 25 41 26 
3 23 11 9 
3 23 9 16 
3 33 22 31 
3 8 25 10 
3 35 40 41 
3 12 31 22 
3 8 27 25 
3 28 27 29 
3 8 32 30 
3 38 15 12 
3 32 24 34 
3 25 28 41 
3 24 27 14 
3 8 14 27 
3 15 36 37 
3 26 37 29 
3 12 15 39 
3 39 41 40 
3 38 12 22 
3 25 26 10 
3 25 27 28 
3 34 24 14 
3 12 39 40 
3 29 27 24 
3 10 29 24 
3 26 39 37 
3 33 31 36 
3 39 15 37 
3 38 22 33 
3 12 40 31 
3 26 41 39 
3 17 20 18 
3 20 11 21 
3 13 16 17 
3 23 16 13 
3 19 13 18 
3 19 21 13 
3 19 20 21 
3 30 32 34 
3 30 34 14 
