ply
format ascii 1.0
comment VCGLIB generated
element vertex 262
property float x
property float y
property float z
element face 88
property list uchar int vertex_indices
end_header
0.647501 -4.9054 1.350999 
0.647501 -4.1254 1.350999 
-0.912499 -4.9054 1.350999 
0.647501 -4.9054 1.350999 
1.427501 -4.9054 -1e-06 
1.427501 -4.1254 -1e-06 
0.647501 -4.9054 -1.351001 
0.647501 -4.1254 -1.351001 
1.427501 -4.9054 -1e-06 
0.647501 -4.1254 -1.351001 
0.647501 -4.9054 -1.351001 
-0.912499 -4.1254 -1.351001 
-1.692499 -4.9054 -1e-06 
-1.692499 -4.125401 -1e-06 
-0.912499 -4.9054 -1.351001 
-0.912499 -4.9054 1.350999 
-0.912499 -4.1254 1.350999 
-1.692499 -4.9054 -1e-06 
-0.9125 -3.3454 1.350999 
-1.6925 -2.6045 -0 
-1.692499 -4.125401 -1e-06 
-1.6925 -2.6045 -0 
-0.912499 -4.1254 -1.351001 
-1.692499 -4.125401 -1e-06 
0.644701 -3.5654 -1.321401 
0.647501 -4.1254 -1.351001 
-0.9125 -3.3454 -1.351001 
0.644701 -3.5654 -1.321401 
1.424401 -3.6093 0.035299 
1.427501 -4.1254 -1e-06 
0.644701 -3.5654 1.380599 
0.647501 -4.1254 1.350999 
1.424401 -3.6093 0.035299 
0.647501 -4.1254 1.350999 
0.644701 -3.5654 1.380599 
-0.912499 -4.1254 1.350999 
3.449801 -4.988799 -3.500001 
-3.550199 -4.9888 -3.500001 
3.449801 -4.988801 3.499999 
-3.550199 -4.988801 3.499999 
-3.550199 -4.9888 -3.500001 
-4.163499 -5.525 -3.949401 
-4.163499 -5.525002 3.949398 
-4.355199 -6.0612 -4.095001 
-4.355199 -6.061202 4.094998 
4.063001 -5.525001 3.949398 
-4.163499 -5.525002 3.949398 
-4.355199 -6.061202 4.094998 
3.449801 -4.988801 3.499999 
-4.163499 -5.525002 3.949398 
4.063001 -5.525001 3.949398 
4.063001 -5.525001 3.949398 
4.063001 -5.524999 -3.949401 
3.449801 -4.988799 -3.500001 
4.254801 -6.061199 -4.095001 
4.063001 -5.524999 -3.949401 
4.254801 -6.061201 4.094998 
-4.163499 -5.525 -3.949401 
4.063001 -5.524999 -3.949401 
4.254801 -6.061199 -4.095001 
3.449801 -4.988799 -3.500001 
4.063001 -5.524999 -3.949401 
-3.550199 -4.9888 -3.500001 
-4.355199 -6.061202 4.094998 
-4.355199 -6.0612 -4.095001 
4.254801 -6.061199 -4.095001 
4.254801 -6.061201 4.094998 
4.776101 -3.188801 4.25 
4.9498 -3.938801 5 
4.776101 -3.188798 -4.25 
4.776099 5.311201 4.250001 
4.9498 -3.938801 5 
4.776101 -3.188801 4.25 
4.949799 6.0612 5.000001 
4.776099 5.311201 4.250001 
4.949799 6.061203 -4.999999 
4.9498 -3.938798 -5 
4.949799 6.061203 -4.999999 
4.776101 -3.188798 -4.25 
3.4498 -2.438801 3.5 
4.776101 -3.188801 4.25 
3.4498 -2.438798 -3.5 
3.449799 4.561202 -3.499999 
3.4498 -2.438798 -3.5 
4.776099 5.311203 -4.249999 
3.449799 4.5612 3.500001 
4.776099 5.311203 -4.249999 
4.776099 5.311201 4.250001 
4.776099 5.311201 4.250001 
4.776101 -3.188801 4.25 
3.449799 4.5612 3.500001 
4.949799 6.0612 5.000001 
4.949799 6.061203 -4.999999 
-0.846501 5.278899 5.000001 
-2.033701 4.225598 3.064001 
-0.846501 5.278902 -4.999999 
-2.033701 4.225599 -3.063999 
-2.033701 4.225599 -3.063999 
-4.9498 3.798199 -2.659999 
-4.9498 3.798198 2.660001 
-0.846501 5.278902 -4.999999 
4.949799 6.061203 -4.999999 
4.9498 -3.938798 -5 
-2.0337 -2.1781 -3.064 
-2.033701 4.225599 -3.063999 
-0.8465 -3.321099 -5 
-2.0337 -2.1781 -3.064 
-4.9498 -1.675799 -2.66 
-4.9498 3.798199 -2.659999 
-4.9498 -1.675799 -2.66 
-4.9498 -1.675802 2.66 
-4.9498 3.798198 2.660001 
-4.9498 -1.675802 2.66 
-2.0337 -2.178102 3.064 
-2.033701 4.225598 3.064001 
-4.9498 -1.675799 -2.66 
-2.0337 -2.1781 -3.064 
-4.9498 -1.675802 2.66 
-0.8465 -3.321102 5 
-2.0337 -2.178102 3.064 
-0.8465 -3.321099 -5 
-2.033701 4.225598 3.064001 
-2.0337 -2.178102 3.064 
-0.846501 5.278899 5.000001 
4.9498 -3.938801 5 
4.949799 6.0612 5.000001 
-0.8465 -3.321102 5 
4.9498 -3.938798 -5 
4.9498 -3.938801 5 
-0.8465 -3.321102 5 
4.776101 -3.188798 -4.25 
4.9498 -3.938801 5 
4.9498 -3.938798 -5 
3.449799 4.5612 3.500001 
4.776101 -3.188801 4.25 
3.4498 -2.438801 3.5 
3.4498 -2.438798 -3.5 
4.776101 -3.188801 4.25 
4.776101 -3.188798 -4.25 
4.9498 -3.938801 5 
4.776099 5.311201 4.250001 
4.949799 6.0612 5.000001 
4.776099 5.311203 -4.249999 
3.4498 -2.438798 -3.5 
4.776101 -3.188798 -4.25 
4.949799 6.061203 -4.999999 
4.776099 5.311201 4.250001 
4.776099 5.311203 -4.249999 
4.776099 5.311203 -4.249999 
3.449799 4.5612 3.500001 
3.449799 4.561202 -3.499999 
4.776101 -3.188798 -4.25 
4.949799 6.061203 -4.999999 
4.776099 5.311203 -4.249999 
-0.846501 5.278902 -4.999999 
-2.033701 4.225598 3.064001 
-0.846501 5.278899 5.000001 
4.9498 -3.938798 -5 
-0.8465 -3.321099 -5 
-0.846501 5.278902 -4.999999 
-4.9498 3.798199 -2.659999 
-2.033701 4.225599 -3.063999 
-2.0337 -2.1781 -3.064 
-2.033701 4.225598 3.064001 
-4.9498 3.798198 2.660001 
-4.9498 -1.675802 2.66 
-0.8465 -3.321099 -5 
-2.0337 -2.178102 3.064 
-2.0337 -2.1781 -3.064 
-0.8465 -3.321102 5 
4.949799 6.0612 5.000001 
-0.846501 5.278899 5.000001 
-0.846501 5.278899 5.000001 
4.949799 6.061203 -4.999999 
-0.846501 5.278902 -4.999999 
-4.9498 3.798198 2.660001 
-2.033701 4.225598 3.064001 
-2.033701 4.225599 -3.063999 
-0.8465 -3.321099 -5 
-2.033701 4.225599 -3.063999 
-0.846501 5.278902 -4.999999 
-4.9498 3.798198 2.660001 
-4.9498 3.798199 -2.659999 
-4.9498 -1.675799 -2.66 
-4.9498 -1.675802 2.66 
-2.0337 -2.1781 -3.064 
-2.0337 -2.178102 3.064 
-0.846501 5.278899 5.000001 
-2.0337 -2.178102 3.064 
-0.8465 -3.321102 5 
-0.8465 -3.321102 5 
-0.8465 -3.321099 -5 
4.9498 -3.938798 -5 
1.427501 -4.9054 -1e-06 
0.647501 -4.1254 -1.351001 
1.427501 -4.1254 -1e-06 
1.427501 -4.1254 -1e-06 
0.647501 -4.1254 -1.351001 
0.644701 -3.5654 -1.321401 
-0.912499 -4.1254 -1.351001 
0.647501 -4.9054 -1.351001 
-0.912499 -4.9054 -1.351001 
-0.912499 -4.1254 -1.351001 
-1.6925 -2.6045 -0 
-0.9125 -3.3454 -1.351001 
-0.912499 -4.9054 -1.351001 
-1.692499 -4.125401 -1e-06 
-0.912499 -4.1254 -1.351001 
-0.9125 -3.3454 -1.351001 
0.647501 -4.1254 -1.351001 
-0.912499 -4.1254 -1.351001 
1.424401 -3.6093 0.035299 
0.647501 -4.1254 1.350999 
1.427501 -4.1254 -1e-06 
-0.912499 -4.9054 1.350999 
0.647501 -4.1254 1.350999 
-0.912499 -4.1254 1.350999 
-0.912499 -4.1254 1.350999 
0.644701 -3.5654 1.380599 
-0.9125 -3.3454 1.350999 
1.427501 -4.1254 -1e-06 
0.647501 -4.1254 1.350999 
0.647501 -4.9054 1.350999 
-1.692499 -4.9054 -1e-06 
-0.912499 -4.1254 1.350999 
-1.692499 -4.125401 -1e-06 
-1.692499 -4.125401 -1e-06 
-0.912499 -4.1254 1.350999 
-0.9125 -3.3454 1.350999 
-3.550199 -4.9888 -3.500001 
4.063001 -5.524999 -3.949401 
-4.163499 -5.525 -3.949401 
3.449801 -4.988799 -3.500001 
3.449801 -4.988801 3.499999 
4.063001 -5.525001 3.949398 
-4.355199 -6.0612 -4.095001 
-4.163499 -5.525002 3.949398 
-4.163499 -5.525 -3.949401 
4.254801 -6.061201 4.094998 
4.063001 -5.524999 -3.949401 
4.063001 -5.525001 3.949398 
-4.355199 -6.061202 4.094998 
4.254801 -6.061201 4.094998 
4.063001 -5.525001 3.949398 
3.449801 -4.988801 3.499999 
-3.550199 -4.9888 -3.500001 
-3.550199 -4.988801 3.499999 
4.254801 -6.061199 -4.095001 
-4.355199 -6.0612 -4.095001 
-4.163499 -5.525 -3.949401 
-4.163499 -5.525002 3.949398 
3.449801 -4.988801 3.499999 
-3.550199 -4.988801 3.499999 
-4.163499 -5.525 -3.949401 
-4.163499 -5.525002 3.949398 
-3.550199 -4.988801 3.499999 
3.4498 -2.438798 -3.5 
3.449799 4.561202 -3.499999 
3.4498 -2.438801 3.5 
3.4498 -2.438801 3.5 
3.449799 4.561202 -3.499999 
3.449799 4.5612 3.500001 
3 0 1 2 
3 3 4 5 
3 6 7 8 
3 9 10 11 
3 12 13 14 
3 15 16 17 
3 18 19 20 
3 21 22 23 
3 24 25 26 
3 27 28 29 
3 30 31 32 
3 33 34 35 
3 36 37 38 
3 39 40 41 
3 42 43 44 
3 45 46 47 
3 48 49 50 
3 51 52 53 
3 54 55 56 
3 57 58 59 
3 60 61 62 
3 63 64 65 
3 63 65 66 
3 67 68 69 
3 70 71 72 
3 73 74 75 
3 76 77 78 
3 79 80 81 
3 82 83 84 
3 85 86 87 
3 88 89 90 
3 91 92 93 
3 94 95 96 
3 97 98 99 
3 100 101 102 
3 103 104 105 
3 106 107 108 
3 109 110 111 
3 112 113 114 
3 115 116 117 
3 118 119 120 
3 121 122 123 
3 124 125 126 
3 127 128 129 
3 130 131 132 
3 133 134 135 
3 136 137 138 
3 139 140 141 
3 142 143 144 
3 145 146 147 
3 148 149 150 
3 151 152 153 
3 154 155 156 
3 157 158 159 
3 160 161 162 
3 163 164 165 
3 166 167 168 
3 169 170 171 
3 172 173 174 
3 175 176 177 
3 178 179 180 
3 181 182 183 
3 184 185 186 
3 187 188 189 
3 190 191 192 
3 193 194 195 
3 196 197 198 
3 199 200 201 
3 202 203 204 
3 205 206 207 
3 208 209 210 
3 211 212 213 
3 214 215 216 
3 217 218 219 
3 220 221 222 
3 223 224 225 
3 226 227 228 
3 229 230 231 
3 232 233 234 
3 235 236 237 
3 238 239 240 
3 241 242 243 
3 244 245 246 
3 247 248 249 
3 250 251 252 
3 253 254 255 
3 256 257 258 
3 259 260 261 
