ply
format ascii 1.0
comment VCGLIB generated
element vertex 42
property float x
property float y
property float z
element face 80
property list uchar int vertex_indices
end_header
0.021705 0.182606 -0.09626 
0.007617 0.113459 -0.16685 
-0.045346 0.196268 -0.068452 
-0.107627 0.136941 -0.117651 
-0.155821 0.14676 -1e-06 
0.088757 0.168944 -0.068452 
0.026829 0.20775 -1e-06 
-0.072585 0.201818 -1e-06 
-0.146051 -0.051641 -0.117651 
-0.145697 0.046492 -0.136902 
-0.011595 0.019169 -0.192519 
-0.107627 0.136941 0.117649 
0.088757 0.168944 0.06845 
0.122507 -0.008155 -0.136902 
-0.200177 0.057592 -1e-06 
-0.145697 0.046492 0.136901 
-0.045346 0.196268 0.06845 
0.171054 0.080159 -1e-06 
0.115996 0.163394 -1e-06 
-0.030807 -0.075122 -0.16685 
-0.194244 -0.041821 -1e-06 
-0.146051 -0.051641 0.117649 
-0.044896 -0.144269 -0.09626 
-0.011595 0.019169 0.192517 
0.021705 0.182606 0.096258 
0.122861 0.089978 -0.117651 
-0.139186 -0.125057 -1e-06 
-0.111947 -0.130607 -0.068452 
-0.050019 -0.169413 -1e-06 
0.084437 -0.098603 -0.117651 
0.022156 -0.15793 -0.068452 
-0.030807 -0.075122 0.166848 
-0.111947 -0.130607 0.06845 
0.176986 -0.019255 -1e-06 
0.13263 -0.108422 -1e-06 
0.007617 0.113459 0.166848 
0.122861 0.089978 0.117649 
0.122507 -0.008155 0.136901 
0.022156 -0.15793 0.06845 
0.084437 -0.098603 0.117649 
0.049395 -0.16348 -1e-06 
-0.044896 -0.144269 0.096258 
3 4 3 2 
3 0 2 3 
3 1 3 9 
3 0 3 1 
3 14 9 3 
3 4 2 7 
3 6 7 2 
3 14 3 4 
3 1 9 10 
3 6 2 0 
3 4 7 16 
3 5 0 1 
3 6 16 7 
3 6 0 5 
3 8 9 14 
3 10 9 8 
3 14 4 11 
3 25 1 10 
3 5 1 25 
3 4 16 11 
3 6 24 16 
3 6 5 18 
3 8 14 20 
3 10 8 19 
3 6 18 12 
3 6 12 24 
3 25 10 13 
3 14 11 15 
3 13 10 19 
3 20 14 15 
3 5 25 17 
3 35 11 16 
3 35 16 24 
3 19 8 27 
3 8 20 26 
3 5 17 18 
3 12 18 17 
3 8 26 27 
3 13 19 29 
3 20 15 21 
3 24 12 36 
3 19 27 22 
3 26 20 21 
3 29 19 22 
3 11 23 15 
3 25 13 33 
3 11 35 23 
3 24 36 35 
3 12 17 36 
3 25 33 17 
3 33 13 29 
3 28 27 26 
3 28 22 27 
3 26 21 32 
3 28 26 32 
3 29 22 30 
3 28 30 22 
3 32 21 31 
3 29 30 40 
3 15 23 31 
3 15 31 21 
3 29 40 34 
3 28 40 30 
3 28 32 41 
3 33 29 34 
3 37 33 34 
3 32 31 41 
3 35 36 37 
3 35 37 23 
3 36 33 37 
3 36 17 33 
3 28 38 40 
3 28 41 38 
3 23 37 39 
3 23 39 31 
3 40 39 34 
3 41 31 39 
3 40 38 39 
3 37 34 39 
3 41 39 38 
