ply
format ascii 1.0
comment VCGLIB generated
element vertex 459
property float x
property float y
property float z
element face 694
property list uchar int vertex_indices
end_header
-6052 -6872 -15496 
-7040 -4000 -17844 
-7710 -4000 -15496 
-5718 -1710 -17844 
-6052 -1130 -15496 
-3074 -1710 -17844 
-2738 -1130 -15496 
-1750 -4000 -17844 
-1082 -4000 -15496 
-3074 -6292 -17844 
-2738 -6872 -15496 
-5718 -6292 -17844 
-8088 -8820 -8756 
-8088 -8820 -566 
-8088 -110 -8756 
-8088 -110 -566 
-8088 -8820 -15496 
-8088 -110 -15496 
-6946 2170 -6372 
-6946 2170 -566 
-6946 2170 2752 
-8088 -110 2752 
-8088 -8820 2752 
-8088 -8198 -8756 
-8088 -8198 -3470 
-8088 -1354 -8756 
-8088 -1354 -3470 
-8088 -1354 -14874 
-11716 -4880 -14874 
-10368 -1458 -8756 
-10368 -1458 -3470 
-11716 -8198 -8756 
-11716 -4880 -8756 
-11716 -8198 -3470 
-11716 -4880 -3470 
-8088 -4880 -3470 
-8088 -1354 -566 
-10368 -1458 -566 
-11716 -4880 -566 
-8088 -4880 -566 
-8088 -4880 -14874 
-8088 -8198 -14874 
-11716 -8198 -14874 
-10368 -1458 -14874 
6052 -6872 -15496 
7040 -4000 -17844 
7710 -4000 -15496 
5718 -1710 -17844 
6052 -1130 -15496 
3074 -1710 -17844 
2738 -1130 -15496 
1750 -4000 -17844 
1082 -4000 -15496 
3074 -6292 -17844 
2738 -6872 -15496 
5718 -6292 -17844 
8088 -8820 -8756 
8088 -8820 -566 
8088 -110 -8756 
8088 -110 -566 
8088 -8820 -15496 
8088 -110 -15496 
6946 2170 -6372 
6946 2170 -566 
6946 2170 2752 
8088 -110 2752 
8088 -8820 2752 
8088 -8198 -8756 
8088 -8198 -3470 
8088 -1354 -8756 
8088 -1354 -3470 
8088 -1354 -14874 
11716 -4880 -14874 
10368 -1458 -8756 
10368 -1458 -3470 
11716 -8198 -8756 
11716 -4880 -8756 
11716 -8198 -3470 
11716 -4880 -3470 
8088 -4880 -3470 
8088 -1354 -566 
10368 -1458 -566 
11716 -4880 -566 
8088 -4880 -566 
8088 -4880 -14874 
8088 -8198 -14874 
11716 -8198 -14874 
10368 -1458 -14874 
0 -104 -15496 
0 -8812 -15496 
-10596 -252 -7512 
-10296 346 -5734 
-11452 4896 -11992 
-11450 4894 -7512 
-11016 4678 -5734 
-9314 7166 -11992 
-9314 7164 -7512 
-9218 6588 -5734 
-6822 7304 -11992 
-6822 7302 -7512 
-7122 6704 -5734 
-5434 5228 -11992 
-5436 5228 -7512 
-5956 4958 -5734 
-11462 2092 -5734 
-11982 1822 -7512 
-11984 1822 -11992 
-8104 -116 -11992 
-8104 -114 -7512 
-8200 462 -5734 
-10598 -254 -11992 
-10296 348 -15408 
-8202 466 -15408 
-5958 4956 -15408 
-7122 6702 -15408 
-11460 2094 -15408 
-9218 6586 -15408 
-11014 4676 -15408 
10596 -252 -7512 
10296 346 -5734 
11452 4896 -11992 
11450 4894 -7512 
11016 4678 -5734 
9314 7166 -11992 
9314 7164 -7512 
9218 6588 -5734 
6822 7304 -11992 
6822 7302 -7512 
7122 6704 -5734 
5434 5228 -11992 
5436 5228 -7512 
5956 4958 -5734 
11462 2092 -5734 
11982 1822 -7512 
11984 1822 -11992 
8104 -116 -11992 
8104 -114 -7512 
8200 462 -5734 
10598 -254 -11992 
10296 348 -15408 
8202 466 -15408 
5958 4956 -15408 
7122 6702 -15408 
11460 2094 -15408 
9218 6586 -15408 
11014 4676 -15408 
-8088 -104 -15496 
-8088 -104 -8756 
-6946 2178 -15496 
-6946 2178 -6372 
8088 -104 -15496 
8088 -104 -8756 
6946 2178 -15496 
6946 2178 -6372 
-5392 5288 -15496 
5392 5288 -15496 
5392 5288 -6372 
-5392 5288 -6372 
-5392 5288 -462 
-6946 2178 -462 
5392 5288 -462 
6946 2178 -462 
6946 2178 2752 
-6946 2178 2752 
3318 8606 -6372 
2904 9228 -462 
-2904 9228 -462 
-3318 8606 -6372 
0 10472 -462 
3318 10472 -6372 
-3318 10472 -6372 
-830 10472 -6164 
-830 10472 -3572 
-518 12234 -4506 
-518 12234 -3780 
830 10472 -6164 
830 10472 -3572 
518 12234 -4506 
518 12234 -3780 
4640 6436 -11764 
4640 6436 -11038 
6194 9128 -11764 
6194 9128 -11038 
6194 9128 -15392 
6194 9128 -10416 
12778 20532 -13940 
12778 20532 -10416 
-4640 6436 -11764 
-4640 6436 -11038 
-6194 9128 -11764 
-6194 9128 -11038 
-6194 9128 -15392 
-6194 9128 -10416 
-12778 20532 -13940 
-12778 20532 -10416 
-1296 12240 -5611 
-1296 12240 -3019 
-1296 13377 -5611 
-1296 13377 -3019 
1296 12240 -5611 
1296 12240 -3019 
1296 13377 -5611 
1296 13377 -3019 
0 9124 8869 
8088 -5392 8869 
8088 -104 8869 
5392 5288 8869 
2904 7984 8869 
-8088 -5392 8869 
-8088 -104 8869 
-5392 5288 8869 
-2904 7984 8869 
-6532 -5392 15089 
-6532 -104 15089 
-4354 5288 13017 
-2384 7984 11149 
-2488 -5392 18823 
-2488 -104 18823 
-1658 5288 15609 
-934 7984 12497 
2488 -5392 18823 
2488 -104 18823 
1658 5288 15609 
934 7984 12497 
6532 -5392 15089 
6532 -104 15089 
4354 5288 13017 
2338 7986 11149 
2904 9228 -463 
5392 5288 -463 
-5392 5288 -463 
-2904 9228 -463 
0 10472 -463 
8088 -5392 2751 
-8088 -5392 2751 
8088 -104 2751 
-8088 -104 2751 
-8088 -6842 7935 
-8088 -6842 2751 
8088 -6842 2751 
8088 -6842 7935 
6946 2178 2751 
-6946 2178 2751 
6221 -5391 14571 
6221 -6843 14571 
7776 -6843 8869 
7776 -5391 8869 
7776 -6843 7936 
-6221 -5391 14571 
-2385 -5391 18096 
-2385 -6843 18096 
2385 -5391 18096 
2385 -6843 18096 
-7776 -6843 7936 
-6221 -6843 14571 
-7776 -6843 8869 
-7776 -5391 8869 
6532 -6843 14986 
5910 -8813 14157 
7361 -8813 9180 
8087 -6843 9491 
7361 -8813 2752 
8087 -6843 2752 
-2488 -6843 18408 
-2281 -8813 17267 
2488 -6843 18408 
2281 -8813 17267 
-7361 -8813 2752 
-8087 -6843 2752 
-7361 -8813 9180 
-8087 -6843 9491 
-5910 -8813 14157 
-6532 -6843 14986 
-3040.086 -10471 13123.45 
-3627.629 -10471 13709.58 
-2894.438 -10160 13270.52 
-3481.273 -10160 13855.94 
-2747.375 -10471 13417.58 
-3334.211 -10471 14003 
-3625.508 -10471 12536.62 
-4213.051 -10471 13122.75 
-3479.859 -10160 12683.68 
-4066.695 -10160 13269.1 
-3333.504 -10471 12830.04 
-3920.34 -10471 13415.46 
-2820.199 -9953 12610.86 
-2820.199 -8813 12610.86 
-2672.43 -9953 12024.73 
-2672.43 -8813 12024.73 
-2233.363 -9953 12465.21 
-2233.363 -8813 12465.21 
-1500.172 -10783 12318.85 
-2674.551 -10783 13490.4 
-1426.641 -9953 12392.38 
-2601.02 -9953 13563.93 
-2524.66 -10783 11291.54 
-3699.039 -10783 12463.09 
-2598.191 -9953 11218 
-3772.57 -9953 12389.55 
3047.055 -10471 13117.77 
3633.891 -10471 13704.6 
2900.699 -10160 13265.54 
3487.535 -10160 13850.96 
2754.344 -10471 13411.89 
3341.18 -10471 13997.31 
3632.477 -10471 12530.93 
4220.02 -10471 13117.06 
3486.828 -10160 12677.99 
4073.664 -10160 13263.41 
3339.766 -10471 12825.05 
3926.602 -10471 13410.48 
2826.461 -9953 12605.88 
2826.461 -8813 12605.88 
2679.398 -9953 12019.04 
2679.398 -8813 12019.04 
2240.332 -9953 12459.52 
2240.332 -8813 12459.52 
1506.434 -10783 12313.87 
2680.813 -10783 13485.42 
1433.609 -9953 12386.7 
2607.281 -9953 13558.95 
2531.629 -10783 11285.85 
3706.008 -10783 12457.4 
2605.16 -9953 11212.32 
3778.832 -9953 12384.57 
-1843 -9907 -10029 
-1843 -9907 -6912 
-1843 -8755 -10029 
-1843 -8755 -6912 
1843 -9907 -10029 
1843 -9907 -6912 
1843 -8755 -10029 
1843 -8755 -6912 
-1613 -9677 -10138 
2304 -10138 -5760 
-1613 -8755 -10138 
-2304 -10138 -5760 
1613 -9677 -10138 
-2304 -10138 -10138 
1613 -8755 -10138 
-1613 -10138 -10138 
2304 -10138 -10138 
2765 -8755 -10138 
1613 -10138 -10138 
2765 -8755 -5760 
-2765 -8755 -10138 
-2765 -8755 -5760 
-1608 -9658 -10090 
-1608 -8766 -10090 
1608 -9658 -10090 
1608 -8766 -10090 
-11670 -8112 -10416 
-11670 -8112 -9690 
-12568 -8632 -10416 
-12568 -8632 -9690 
-12568 -8632 -14044 
-12568 -8632 -9068 
-20560 -13246 -14044 
-20560 -13246 -10830 
11670 -8112 -10416 
11670 -8112 -9690 
12568 -8632 -10416 
12568 -8632 -9690 
12568 -8632 -14044 
12568 -8632 -9068 
20560 -13246 -14044 
20560 -13246 -10830 
8660.867 1181.111 2312 
8660.867 1181.111 2959 
8841.76 1737.965 2312 
8841.76 1737.965 2959 
9218.173 999.3259 2312 
9218.173 999.3259 2959 
9399.506 1557.524 2312 
9399.506 1557.524 2959 
8190.018 2103.96 2312 
8190.018 2103.96 2959 
8371.352 2662.158 2312 
8371.352 2662.158 2959 
8747.764 1923.519 2312 
8747.764 1923.519 2959 
8929.549 2480.825 2312 
8929.549 2480.825 2959 
8052.354 1917.639 1404 
7313.715 1541.226 1404 
7690.128 802.5872 989 
8428.767 1179 989 
7313.715 1541.226 471 
8052.354 1917.639 471 
9761.824 1118.902 2312 
8725.68 590.6609 2312 
8940.322 169.1543 973 
9976.467 697.3953 973 
8589.216 857.8359 -366 
9625.36 1386.077 -366 
7886.552 2236.091 -366 
8923.148 2763.44 -366 
7536.337 2925.225 973 
8571.59 3453.014 973 
7750.98 2503.718 2312 
8786.232 3031.507 2312 
-8660.867 1181.111 2312 
-8660.867 1181.111 2959 
-8841.76 1737.965 2312 
-8841.76 1737.965 2959 
-9218.173 999.3259 2312 
-9218.173 999.3259 2959 
-9399.506 1557.524 2312 
-9399.506 1557.524 2959 
-8190.018 2103.96 2312 
-8190.018 2103.96 2959 
-8371.352 2662.158 2312 
-8371.352 2662.158 2959 
-8747.764 1923.519 2312 
-8747.764 1923.519 2959 
-8929.549 2480.825 2312 
-8929.549 2480.825 2959 
-8052.354 1917.639 1404 
-7313.715 1541.226 1404 
-7690.128 802.5872 989 
-8428.767 1179 989 
-7313.715 1541.226 471 
-8052.354 1917.639 471 
-9761.824 1118.902 2312 
-8725.68 590.6609 2312 
-8940.322 169.1543 973 
-9976.467 697.3953 973 
-8589.216 857.8359 -366 
-9625.36 1386.077 -366 
-7886.552 2236.091 -366 
-8923.148 2763.44 -366 
-7536.337 2925.225 973 
-8571.59 3453.014 973 
-7750.98 2503.718 2312 
-8786.232 3031.507 2312 
5718 -1710 -17844 
7040 -4000 -17844 
7042 -4000 -19513 
5719 -1707 -19513 
1751 -4000 -17844 
3073 -1710 -17844 
3071 -1707 -19513 
1748 -4000 -19513 
5718 -6291 -17844 
5719 -6293 -19513 
3073 -6291 -17844 
3071 -6293 -19513 
-5718 -1710 -17844 
-7040 -4000 -17844 
-7042 -4000 -19513 
-5719 -1707 -19513 
-1751 -4000 -17844 
-3073 -1710 -17844 
-3071 -1707 -19513 
-1748 -4000 -19513 
-5718 -6291 -17844 
-5719 -6293 -19513 
-3073 -6291 -17844 
-3071 -6293 -19513 
3 51 45 47 
3 51 47 49 
3 7 5 3 
3 7 3 1 
3 1 11 9 
3 1 9 7 
3 45 51 53 
3 45 53 55 
3 40 27 43 
3 40 43 28 
3 11 1 2 
3 11 2 0 
3 78 77 68 
3 78 68 79 
3 9 11 0 
3 9 0 10 
3 83 80 81 
3 83 81 82 
3 35 34 38 
3 35 38 39 
3 25 29 43 
3 25 43 27 
3 83 82 78 
3 83 78 79 
3 44 46 45 
3 44 45 55 
3 1 3 4 
3 1 4 2 
3 46 48 47 
3 46 47 45 
3 84 85 86 
3 84 86 72 
3 35 24 33 
3 35 33 34 
3 5 7 8 
3 5 8 6 
3 54 44 55 
3 54 55 53 
3 3 5 6 
3 3 6 4 
3 71 87 73 
3 71 73 69 
3 7 9 10 
3 7 10 8 
3 72 87 71 
3 72 71 84 
3 38 37 36 
3 38 36 39 
3 28 42 41 
3 28 41 40 
3 52 54 53 
3 52 53 51 
3 48 50 49 
3 48 49 47 
3 50 52 51 
3 50 51 49 
3 14 12 16 
3 14 16 17 
3 87 72 76 
3 87 76 73 
3 32 31 42 
3 32 42 28 
3 72 86 75 
3 72 75 76 
3 29 32 28 
3 29 28 43 
3 61 60 56 
3 61 56 58 
3 14 17 88 
3 62 63 19 
3 62 19 18 
3 88 61 58 
3 89 60 61 
3 89 61 88 
3 58 14 88 
3 21 20 64 
3 21 64 65 
3 88 17 16 
3 88 16 89 
3 62 18 14 
3 62 14 58 
3 22 21 65 
3 22 65 66 
3 64 20 19 
3 64 19 63 
3 81 80 70 
3 81 70 74 
3 65 64 63 
3 65 63 59 
3 25 26 30 
3 25 30 29 
3 63 62 58 
3 63 58 59 
3 73 74 70 
3 73 70 69 
3 15 14 18 
3 15 18 19 
3 30 26 36 
3 30 36 37 
3 15 19 20 
3 15 20 21 
3 13 12 14 
3 13 14 15 
3 34 30 37 
3 34 37 38 
3 59 58 56 
3 59 56 57 
3 82 81 74 
3 82 74 78 
3 76 78 74 
3 76 74 73 
3 29 30 34 
3 29 34 32 
3 13 15 21 
3 13 21 22 
3 33 31 32 
3 33 32 34 
3 78 76 75 
3 78 75 77 
3 66 65 59 
3 66 59 57 
3 89 16 12 
3 12 56 89 
3 56 60 89 
3 13 22 66 
3 13 66 57 
3 12 13 57 
3 12 57 56 
3 23 41 42 
3 23 42 31 
3 31 33 24 
3 31 24 23 
3 67 68 77 
3 67 77 75 
3 75 86 85 
3 75 85 67 
3 169 164 168 
3 154 157 149 
3 154 149 148 
3 153 152 150 
3 153 150 151 
3 168 167 170 
3 148 149 147 
3 148 147 146 
3 156 155 152 
3 156 152 153 
3 144 142 139 
3 144 139 143 
3 111 112 113 
3 111 113 114 
3 115 111 114 
3 115 114 116 
3 142 141 140 
3 142 140 139 
3 116 117 115 
3 143 145 144 
3 177 178 174 
3 177 174 173 
3 125 122 132 
3 132 119 128 
3 132 128 125 
3 131 128 119 
3 131 119 137 
3 109 91 100 
3 109 100 103 
3 97 100 91 
3 97 91 104 
3 104 94 97 
3 164 167 154 
3 164 154 155 
3 149 153 151 
3 149 151 147 
3 146 147 151 
3 146 151 150 
3 169 170 167 
3 169 167 164 
3 163 159 158 
3 155 154 148 
3 155 148 152 
3 162 160 161 
3 161 160 156 
3 161 156 153 
3 158 159 149 
3 158 149 157 
3 152 148 146 
3 152 146 150 
3 167 166 158 
3 167 158 157 
3 164 165 168 
3 165 164 156 
3 165 156 160 
3 168 166 167 
3 168 170 169 
3 159 161 153 
3 159 153 149 
3 163 162 161 
3 163 161 159 
3 173 174 172 
3 173 172 171 
3 177 173 171 
3 177 171 175 
3 178 177 175 
3 178 175 176 
3 174 178 176 
3 174 176 172 
3 167 157 154 
3 165 160 158 
3 165 158 166 
3 162 163 158 
3 162 158 160 
3 166 168 165 
3 164 155 156 
3 133 121 120 
3 133 120 134 
3 121 124 123 
3 121 123 120 
3 92 95 96 
3 92 96 93 
3 95 92 117 
3 95 117 116 
3 132 122 121 
3 132 121 133 
3 92 106 115 
3 92 115 117 
3 140 141 129 
3 140 129 135 
3 98 95 116 
3 98 116 114 
3 143 139 138 
3 143 138 134 
3 106 110 111 
3 106 111 115 
3 145 143 134 
3 145 134 120 
3 101 98 114 
3 101 114 113 
3 93 96 97 
3 93 97 94 
3 107 101 113 
3 107 113 112 
3 118 133 134 
3 118 134 138 
3 110 107 112 
3 110 112 111 
3 136 118 138 
3 136 138 135 
3 105 93 94 
3 105 94 104 
3 129 130 136 
3 129 136 135 
3 106 92 93 
3 106 93 105 
3 127 130 129 
3 127 129 126 
3 90 105 104 
3 90 104 91 
3 124 127 126 
3 124 126 123 
3 110 106 105 
3 110 105 90 
3 139 140 135 
3 139 135 138 
3 108 90 91 
3 108 91 109 
3 142 144 123 
3 142 123 126 
3 107 110 90 
3 107 90 108 
3 119 132 133 
3 119 133 118 
3 108 109 103 
3 108 103 102 
3 130 131 137 
3 130 137 136 
3 107 108 102 
3 107 102 101 
3 125 128 127 
3 125 127 124 
3 141 142 126 
3 141 126 129 
3 95 98 99 
3 95 99 96 
3 96 99 100 
3 96 100 97 
3 98 101 102 
3 98 102 99 
3 99 102 103 
3 99 103 100 
3 144 145 120 
3 144 120 123 
3 122 125 124 
3 122 124 121 
3 128 131 130 
3 128 130 127 
3 137 119 118 
3 137 118 136 
3 179 180 182 
3 179 182 181 
3 181 182 180 
3 181 180 179 
3 183 184 186 
3 183 186 185 
3 185 186 184 
3 185 184 183 
3 189 190 188 
3 189 188 187 
3 187 188 190 
3 187 190 189 
3 193 194 192 
3 193 192 191 
3 191 192 194 
3 191 194 193 
3 201 202 198 
3 201 198 197 
3 195 196 200 
3 195 200 199 
3 201 197 195 
3 201 195 199 
3 202 201 199 
3 202 199 200 
3 198 202 200 
3 198 200 196 
3 197 198 196 
3 197 196 195 
3 221 225 224 
3 221 224 220 
3 213 217 216 
3 213 216 212 
3 217 221 220 
3 217 220 216 
3 232 228 207 
3 232 207 203 
3 203 207 227 
3 203 219 215 
3 203 215 211 
3 219 223 222 
3 219 222 218 
3 218 222 221 
3 218 221 217 
3 231 232 203 
3 231 203 211 
3 203 227 223 
3 203 223 219 
3 215 219 218 
3 215 218 214 
3 211 215 214 
3 211 214 210 
3 226 206 205 
3 226 205 225 
3 227 207 206 
3 227 206 226 
3 210 214 213 
3 210 213 209 
3 214 218 217 
3 214 217 213 
3 223 227 226 
3 223 226 222 
3 222 226 225 
3 222 225 221 
3 237 238 234 
3 237 234 208 
3 239 240 204 
3 239 204 233 
3 209 213 212 
3 209 212 208 
3 225 205 204 
3 225 204 224 
3 235 233 204 
3 235 204 205 
3 234 236 209 
3 234 209 208 
3 210 230 231 
3 242 230 210 
3 241 235 205 
3 241 205 206 
3 228 229 206 
3 206 229 241 
3 210 209 236 
3 210 236 242 
3 206 207 228 
3 231 211 210 
3 236 234 233 
3 236 233 235 
3 242 236 235 
3 242 235 241 
3 224 204 208 
3 224 208 212 
3 241 229 230 
3 241 230 242 
3 239 238 237 
3 239 237 240 
3 212 216 220 
3 212 220 224 
3 240 237 208 
3 240 208 204 
3 238 239 233 
3 238 233 234 
3 228 232 231 
3 231 230 229 
3 231 229 228 
3 263 265 266 
3 263 266 264 
3 249 251 252 
3 249 252 250 
3 256 248 254 
3 256 254 255 
3 265 257 258 
3 265 258 266 
3 260 262 261 
3 260 261 259 
3 251 243 244 
3 251 244 252 
3 257 260 259 
3 257 259 258 
3 246 247 245 
3 268 270 269 
3 268 269 267 
3 270 272 271 
3 270 271 269 
3 272 263 264 
3 272 264 271 
3 248 249 250 
3 248 250 254 
3 256 255 253 
3 243 246 245 
3 243 245 244 
3 257 265 263 
3 257 263 272 
3 243 251 249 
3 243 249 248 
3 258 259 269 
3 258 269 271 
3 248 256 246 
3 248 246 243 
3 272 270 260 
3 272 260 257 
3 246 256 253 
3 246 253 247 
3 271 264 266 
3 271 266 258 
3 259 261 267 
3 259 267 269 
3 262 260 270 
3 262 270 268 
3 289 285 286 
3 289 286 290 
3 293 294 298 
3 293 298 297 
3 285 287 288 
3 285 288 286 
3 277 273 274 
3 277 274 278 
3 287 289 290 
3 287 290 288 
3 275 277 278 
3 275 278 276 
3 291 292 294 
3 291 294 293 
3 283 279 280 
3 283 280 284 
3 281 283 284 
3 281 284 282 
3 295 296 292 
3 295 292 291 
3 295 291 293 
3 295 293 297 
3 296 295 297 
3 296 297 298 
3 292 296 298 
3 292 298 294 
3 284 280 282 
3 279 281 282 
3 279 282 280 
3 278 274 276 
3 273 275 276 
3 273 276 274 
3 316 312 311 
3 316 311 315 
3 323 324 320 
3 323 320 319 
3 312 314 313 
3 312 313 311 
3 304 300 299 
3 304 299 303 
3 314 316 315 
3 314 315 313 
3 302 304 303 
3 302 303 301 
3 319 320 318 
3 319 318 317 
3 310 306 305 
3 310 305 309 
3 308 310 309 
3 308 309 307 
3 317 318 322 
3 317 322 321 
3 323 319 317 
3 323 317 321 
3 324 323 321 
3 324 321 322 
3 320 324 322 
3 320 322 318 
3 308 306 310 
3 306 308 307 
3 306 307 305 
3 302 300 304 
3 300 302 301 
3 300 301 299 
3 341 334 344 
3 341 344 342 
3 336 338 345 
3 336 345 346 
3 341 342 339 
3 341 339 337 
3 338 340 333 
3 344 334 336 
3 344 336 346 
3 337 343 341 
3 333 335 345 
3 333 345 338 
3 340 343 337 
3 340 337 333 
3 343 340 336 
3 343 336 334 
3 325 326 328 
3 325 328 327 
3 340 338 336 
3 330 329 331 
3 330 331 332 
3 329 330 326 
3 329 326 325 
3 326 330 332 
3 326 332 328 
3 334 341 343 
3 350 348 347 
3 350 347 349 
3 352 351 353 
3 352 353 354 
3 354 353 351 
3 354 351 352 
3 356 355 357 
3 356 357 358 
3 358 357 355 
3 358 355 356 
3 362 361 359 
3 362 359 360 
3 360 359 361 
3 360 361 362 
3 366 365 363 
3 366 363 364 
3 364 363 365 
3 364 365 366 
3 388 383 384 
3 388 384 387 
3 391 393 395 
3 391 395 397 
3 383 386 385 
3 383 385 384 
3 369 370 368 
3 369 368 367 
3 389 392 391 
3 389 391 390 
3 374 373 371 
3 374 371 372 
3 400 389 390 
3 400 390 399 
3 367 368 372 
3 367 372 371 
3 400 398 392 
3 400 392 389 
3 378 382 380 
3 378 380 376 
3 398 400 399 
3 398 399 397 
3 381 382 378 
3 381 378 377 
3 397 399 390 
3 397 390 391 
3 385 387 384 
3 370 374 372 
3 370 372 368 
3 392 394 393 
3 392 393 391 
3 394 392 398 
3 394 398 396 
3 394 396 395 
3 394 395 393 
3 396 398 397 
3 396 397 395 
3 373 374 370 
3 373 370 369 
3 386 388 387 
3 386 387 385 
3 375 376 380 
3 375 380 379 
3 382 381 379 
3 382 379 380 
3 377 378 376 
3 377 376 375 
3 421 418 417 
3 421 417 422 
3 431 429 427 
3 431 427 425 
3 418 419 420 
3 418 420 417 
3 401 402 404 
3 401 404 403 
3 424 425 426 
3 424 426 423 
3 406 405 407 
3 406 407 408 
3 433 424 423 
3 433 423 434 
3 405 406 402 
3 405 402 401 
3 423 426 432 
3 423 432 434 
3 410 414 416 
3 410 416 412 
3 431 433 434 
3 431 434 432 
3 411 412 416 
3 411 416 415 
3 425 424 433 
3 425 433 431 
3 418 421 419 
3 402 406 408 
3 402 408 404 
3 425 427 428 
3 425 428 426 
3 430 432 426 
3 430 426 428 
3 427 429 430 
3 427 430 428 
3 429 431 432 
3 429 432 430 
3 403 404 408 
3 403 408 407 
3 419 421 422 
3 419 422 420 
3 413 414 410 
3 413 410 409 
3 414 413 415 
3 414 415 416 
3 409 410 412 
3 409 412 411 
3 435 436 437 
3 435 437 438 
3 440 435 438 
3 440 438 441 
3 438 437 436 
3 438 436 435 
3 443 445 446 
3 443 446 444 
3 445 439 442 
3 445 442 446 
3 436 443 444 
3 436 444 437 
3 439 440 441 
3 439 441 442 
3 442 441 440 
3 442 440 439 
3 441 438 435 
3 441 435 440 
3 444 446 445 
3 444 445 443 
3 446 442 439 
3 446 439 445 
3 437 444 443 
3 437 443 436 
3 450 449 448 
3 450 448 447 
3 453 450 447 
3 453 447 452 
3 447 448 449 
3 447 449 450 
3 456 458 457 
3 456 457 455 
3 458 454 451 
3 458 451 457 
3 449 456 455 
3 449 455 448 
3 454 453 452 
3 454 452 451 
3 451 452 453 
3 451 453 454 
3 452 447 450 
3 452 450 453 
3 455 457 458 
3 455 458 456 
3 457 451 454 
3 457 454 458 
3 448 455 456 
3 448 456 449 
