ply
format ascii 1.0
comment VCGLIB generated
element vertex 194
property float x
property float y
property float z
element face 358
property list uchar int vertex_indices
end_header
-315 -25 -568 
-315 -25 280 
-367 168 -568 
-379 154 251 
-505 -43 -568 
-505 -43 280 
-544 168 -568 
-544 168 280 
-435 11 -922 
-598 84 264 
-618 84 -531 
-598 59 280 
-618 59 -568 
-1419 52 -348 
-1371 52 340 
-1371 91 324 
-1419 91 -311 
-2130 91 227 
-2085 91 713 
-2130 52 190 
-2085 52 729 
-2481 53 795 
-2466 90 810 
-2662 91 1511 
-439 186 280 
-439 186 -568 
-359 168 -103 
-439 186 -103 
-573 168 -103 
-647 84 -93 
-303 -25 -103 
315 -25 -568 
315 -25 280 
368 168 -568 
380 154 251 
506 -43 -568 
506 -43 280 
545 168 -568 
545 168 280 
435 11 -922 
599 84 264 
618 84 -531 
599 59 280 
618 59 -568 
1419 52 -348 
1371 52 340 
1371 91 324 
1419 91 -311 
2130 91 227 
2085 91 713 
2130 52 190 
2085 52 729 
2481 53 795 
2466 90 810 
2662 91 1511 
439 186 280 
439 186 -568 
360 168 -103 
439 186 -103 
573 168 -103 
648 84 -93 
304 -25 -103 
-264 -66 -56 
-341 -128 818 
-241 190 -56 
-312 176 818 
264 -66 -56 
341 -128 818 
241 190 -56 
312 176 818 
129 303 818 
100 297 -56 
-100 297 -56 
-129 303 818 
54 142 -962 
59 84 -962 
27 166 -962 
-159 7 -327 
73 226 -327 
146 162 -327 
-73 226 -327 
-146 162 -327 
159 7 -327 
-83 144 1330 
0 60 1446 
0 -155 1523 
-59 84 -962 
-166 77 1330 
83 144 1330 
-54 142 -962 
-27 166 -962 
-166 -128 818 
166 -128 818 
-73 136 818 
-146 76 818 
73 136 818 
146 76 818 
166 77 1330 
189 -155 1330 
-189 -155 1330 
128 -155 1468 
-128 -155 1468 
-325 -119 430 
-172 -133 418 
172 -133 418 
325 -119 430 
236 -255 578 
444 -255 578 
260 -307 836 
454 -307 836 
-236 -255 578 
-444 -255 578 
-260 -307 836 
-454 -307 836 
-347 -202 1083 
-346 -260 1083 
-271 -202 1083 
-270 -260 1083 
346 -260 1083 
347 -202 1083 
270 -260 1083 
271 -202 1083 
271 -202 2392 
271 -260 2392 
347 -202 2392 
347 -260 2392 
-347 -202 2392 
-347 -260 2392 
-271 -202 2392 
-271 -260 2392 
356 -52 818 
275 -2 -56 
-356 -52 818 
-275 -2 -56 
167 45 -327 
-167 45 -327 
-101 159 -965 
100 159 -965 
40 219 -965 
-40 219 -965 
40 19 -965 
-40 19 -965 
-101 79 -965 
100 79 -965 
-62 -34 -994 
61 -34 -994 
153 58 -994 
-153 58 -994 
61 272 -994 
-62 272 -994 
153 180 -994 
-153 180 -994 
-111 163 -1377 
-111 75 -1377 
0 120 -2307 
-61 270 -1187 
60 270 -1187 
-151 179 -1187 
150 179 -1187 
150 59 -1187 
-151 59 -1187 
-61 -31 -1187 
60 -31 -1187 
44 9 -1377 
-45 9 -1377 
110 75 -1377 
110 163 -1377 
-45 230 -1377 
44 230 -1377 
41 223 -1010 
-42 223 -1010 
-104 161 -1010 
103 161 -1010 
103 78 -1010 
-104 78 -1010 
-42 15 -1010 
41 15 -1010 
-53 98 -966 
52 140 -966 
0 120 -3355 
-31 196 -1217 
30 196 -1217 
-77 150 -1217 
76 150 -1217 
76 88 -1217 
-77 88 -1217 
-31 43 -1217 
30 43 -1217 
21 172 -966 
-21 172 -966 
-53 140 -966 
52 98 -966 
21 66 -966 
-21 66 -966 
3 46 40 60 
3 1 11 24 
3 47 41 43 
3 1 3 26 
3 46 45 42 
3 4 5 1 
3 4 1 30 
3 4 0 8 
3 8 0 2 
3 50 48 47 
3 50 47 44 
3 22 17 23 
3 11 12 13 
3 11 13 14 
3 125 123 122 
3 125 122 124 
3 12 10 16 
3 29 9 15 
3 49 51 45 
3 49 45 46 
3 55 42 32 
3 54 49 48 
3 58 57 33 
3 60 47 46 
3 17 18 23 
3 35 31 61 
3 30 0 4 
3 51 49 54 
3 16 10 29 
3 60 41 47 
3 3 24 27 
3 53 52 54 
3 26 2 0 
3 58 55 34 
3 27 24 7 
3 56 33 39 
3 1 5 11 
3 31 33 57 
3 12 8 6 
3 33 56 58 
3 20 19 21 
3 38 55 58 
3 16 13 12 
3 37 41 60 
3 29 28 7 
3 42 36 32 
3 25 27 28 
3 39 35 43 
3 26 30 1 
3 37 39 43 
3 11 9 7 
3 48 50 52 
3 48 52 53 
3 7 24 11 
3 52 50 51 
3 60 40 38 
3 51 54 52 
3 61 32 36 
3 61 36 35 
3 43 44 47 
3 39 31 35 
3 42 40 46 
3 33 31 39 
3 38 59 60 
3 54 48 53 
3 58 59 38 
3 25 6 8 
3 59 58 56 
3 6 10 12 
3 57 61 31 
3 11 14 15 
3 32 61 57 
3 15 14 20 
3 15 20 18 
3 42 43 35 
3 23 18 20 
3 38 40 42 
3 8 2 25 
3 32 34 55 
3 29 10 6 
3 42 55 38 
3 22 21 19 
3 22 19 17 
3 34 57 58 
3 15 9 11 
3 2 26 27 
3 0 30 26 
3 27 26 3 
3 24 3 1 
3 74 76 90 
3 74 90 89 
3 39 37 56 
3 60 59 37 
3 43 41 37 
3 6 28 29 
3 45 44 43 
3 45 43 42 
3 89 86 75 
3 89 75 74 
3 11 5 4 
3 127 129 117 
3 127 117 115 
3 15 16 29 
3 129 128 116 
3 129 116 117 
3 27 25 2 
3 7 9 29 
3 21 23 20 
3 128 126 114 
3 128 114 116 
3 4 12 11 
3 126 127 115 
3 126 115 114 
3 56 37 59 
3 123 125 118 
3 123 118 120 
3 28 6 25 
3 23 21 22 
3 129 127 126 
3 129 126 128 
3 122 123 120 
3 122 120 121 
3 124 122 121 
3 124 121 119 
3 125 124 119 
3 125 119 118 
3 12 4 8 
3 13 16 17 
3 13 17 19 
3 35 36 42 
3 57 34 32 
3 7 28 27 
3 51 50 44 
3 51 44 45 
3 48 49 46 
3 48 46 47 
3 16 15 18 
3 16 18 17 
3 14 13 19 
3 14 19 20 
3 73 70 95 
3 73 95 93 
3 130 67 92 
3 95 69 96 
3 65 93 94 
3 70 69 95 
3 69 130 96 
3 96 130 92 
3 65 73 93 
3 65 94 132 
3 94 91 132 
3 132 91 63 
3 130 69 68 
3 132 63 102 
3 79 134 131 
3 78 79 68 
3 78 68 71 
3 69 70 71 
3 68 131 130 
3 70 73 72 
3 70 72 71 
3 130 131 105 
3 72 73 65 
3 102 133 132 
3 65 64 72 
3 102 62 133 
3 80 78 71 
3 80 71 72 
3 100 98 99 
3 100 99 101 
3 71 68 69 
3 98 92 91 
3 98 91 99 
3 133 135 81 
3 105 67 130 
3 134 82 66 
3 134 66 131 
3 132 133 64 
3 81 80 72 
3 81 72 64 
3 81 64 133 
3 133 62 77 
3 133 77 135 
3 64 65 132 
3 101 85 100 
3 131 66 105 
3 131 68 79 
3 100 85 84 
3 100 84 97 
3 101 99 87 
3 97 98 100 
3 87 99 91 
3 87 91 94 
3 84 85 101 
3 88 97 84 
3 83 87 94 
3 83 94 93 
3 88 84 83 
3 83 93 95 
3 83 95 88 
3 87 84 101 
3 98 97 96 
3 98 96 92 
3 84 87 83 
3 97 88 95 
3 97 95 96 
3 120 118 109 
3 120 109 108 
3 103 91 92 
3 103 92 104 
3 115 117 112 
3 115 112 113 
3 106 108 109 
3 106 109 107 
3 111 113 112 
3 111 112 110 
3 104 66 62 
3 104 62 103 
3 104 105 66 
3 82 77 62 
3 82 62 66 
3 62 102 103 
3 74 75 134 
3 135 86 89 
3 75 86 77 
3 75 77 82 
3 90 76 78 
3 90 78 80 
3 76 74 79 
3 76 79 78 
3 134 79 74 
3 135 77 86 
3 89 90 80 
3 89 80 81 
3 89 81 135 
3 75 82 134 
3 104 106 107 
3 111 110 103 
3 109 118 119 
3 107 109 67 
3 120 108 92 
3 106 104 92 
3 119 121 92 
3 119 92 67 
3 107 105 104 
3 116 114 63 
3 116 63 91 
3 67 105 107 
3 114 115 113 
3 63 113 111 
3 103 102 111 
3 119 67 109 
3 91 112 117 
3 92 121 120 
3 91 103 110 
3 92 108 106 
3 113 63 114 
3 110 112 91 
3 111 102 63 
3 117 116 91 
3 147 144 141 
3 147 141 142 
3 143 137 136 
3 143 136 142 
3 146 150 137 
3 146 137 143 
3 142 141 140 
3 142 140 143 
3 137 138 139 
3 137 139 136 
3 150 148 138 
3 150 138 137 
3 148 149 139 
3 148 139 138 
3 151 147 142 
3 151 142 136 
3 145 146 143 
3 145 143 140 
3 144 145 140 
3 144 140 141 
3 149 151 136 
3 149 136 139 
3 172 169 170 
3 172 170 171 
3 174 175 176 
3 174 176 173 
3 173 172 171 
3 173 171 174 
3 157 160 153 
3 157 153 152 
3 158 156 168 
3 158 168 166 
3 152 153 154 
3 155 157 152 
3 155 152 167 
3 173 172 158 
3 173 158 159 
3 166 168 154 
3 174 175 161 
3 174 161 160 
3 167 152 154 
3 175 176 162 
3 175 162 161 
3 165 166 154 
3 160 161 164 
3 160 164 153 
3 164 163 154 
3 159 158 166 
3 159 166 165 
3 154 168 167 
3 156 155 167 
3 156 167 168 
3 176 173 159 
3 176 159 162 
3 170 171 157 
3 170 157 155 
3 172 169 156 
3 172 156 158 
3 154 153 164 
3 154 163 165 
3 161 162 163 
3 161 163 164 
3 171 174 160 
3 171 160 157 
3 169 170 155 
3 169 155 156 
3 162 159 165 
3 162 165 163 
3 178 188 189 
3 178 189 190 
3 177 193 192 
3 177 192 191 
3 191 178 190 
3 191 190 177 
3 186 187 179 
3 179 187 184 
3 182 185 179 
3 184 183 179 
3 191 178 183 
3 191 183 184 
3 179 181 180 
3 177 193 186 
3 177 186 185 
3 193 192 187 
3 193 187 186 
3 189 190 182 
3 189 182 180 
3 178 188 181 
3 178 181 183 
3 180 182 179 
3 183 181 179 
3 188 189 180 
3 188 180 181 
3 192 191 184 
3 192 184 187 
3 190 177 185 
3 190 185 182 
3 179 185 186 
