ply
format ascii 1.0
comment VCGLIB generated
element vertex 8
property float x
property float y
property float z
element face 12
property list uchar int vertex_indices
end_header
3.200556 128.7198 -3.121111 
-47.75108 97.05402 -18.42144 
28.11517 83.97992 -49.24648 
-28.5632 38.78143 -47.66393 
-42.43881 24.2312 18.52992 
21.14305 11.28014 -10.85587 
52.91811 72.92029 19.53765 
6.058165 62.46051 58.15874 
3 0 6 2 
3 4 5 7 
3 1 3 4 
3 0 1 7 
3 2 1 0 
3 5 4 3 
3 6 7 5 
3 4 7 1 
3 3 2 5 
3 7 6 0 
3 2 3 1 
3 2 6 5 
