ply
format ascii 1.0
comment VCGLIB generated
element vertex 42
property float x
property float y
property float z
element face 49
property list uchar int vertex_indices
end_header
-63.6828 118.0337 -55.70381 
5.834045 304.306 -163.2171 
-160.7958 415.0406 27.49496 
-135.3303 302.5143 -62.50764 
-127.0224 262.3576 23.55771 
9.538391 515.3262 86.56638 
-6.874695 336.3445 162.1931 
-83.65057 412.2427 153.1032 
32.58575 104.8525 69.20938 
44.85309 47.08517 -137.2534 
123.4822 295.5048 -184.4308 
122.4913 124.936 -189.9532 
195.8577 239.6306 46.00537 
204.0259 120.8086 -76.21767 
141.4962 12.66411 -35.76428 
-69.06635 149.1602 -139.3399 
30.82111 226.7874 -208.1297 
95.13043 163.6864 115.4756 
219.1815 249.8644 -59.29378 
-78.96454 274.1327 106.6278 
37.8194 427.8283 -88.32724 
85.87726 439.6034 -5.257111 
-49.5766 469.9476 -50.47968 
44.56915 237.748 125.6319 
139.4422 314.0471 48.06213 
9.538391 515.3263 86.56638 
85.87726 439.6034 -5.257111 
139.4422 314.0471 48.06213 
85.87726 439.6034 -5.257111 
9.538391 515.3263 86.56638 
139.4422 314.0471 48.06213 
-6.874695 336.3445 162.1931 
-160.7958 415.0406 27.49496 
-135.3303 302.5143 -62.50764 
-49.5766 469.9476 -50.47968 
5.834045 304.306 -163.2171 
5.834045 304.306 -163.2171 
123.4822 295.5048 -184.4308 
37.8194 427.8283 -88.32724 
-49.5766 469.9476 -50.47968 
-160.7958 415.0406 27.49496 
-135.3303 302.5143 -62.50764 
3 0 4 3 
3 0 3 15 
3 15 3 1 
3 3 4 2 
3 7 2 4 
3 0 19 4 
3 5 22 2 
3 7 4 19 
3 5 7 6 
3 2 7 5 
3 9 14 8 
3 22 5 21 
3 14 9 11 
3 17 8 14 
3 0 15 9 
3 11 9 15 
3 11 13 14 
3 9 8 0 
3 11 15 16 
3 13 11 10 
3 14 13 12 
3 16 10 11 
3 12 17 14 
3 18 12 13 
3 24 12 18 
3 23 17 12 
3 13 10 18 
3 23 12 24 
3 1 16 15 
3 10 16 1 
3 8 17 23 
3 10 20 21 
3 19 8 23 
3 0 8 19 
3 18 21 24 
3 21 18 10 
3 23 6 19 
3 19 6 7 
3 22 21 20 
3 24 6 23 
3 27 26 25 
3 29 30 28 
3 29 31 30 
3 34 33 32 
3 34 35 33 
3 38 36 41 
3 38 37 36 
3 38 40 39 
3 38 41 40 
