ply
format ascii 1.0
comment Created by Blender 2.78 (sub 0) - www.blender.org, source file: ''
element vertex 60
property float x
property float y
property float z
property float nx
property float ny
property float nz
element face 20
property list uchar uint vertex_indices
end_header
1.199800 -1.392900 -0.045000 -0.197637 -0.527969 -0.825947
0.011300 -0.945500 -0.046600 -0.197637 -0.527969 -0.825947
0.011600 -0.085200 -0.596600 -0.197637 -0.527969 -0.825947
0.922500 -0.399800 -0.038900 0.555036 0.159995 -0.816295
1.199800 -1.392900 -0.045000 0.555036 0.159995 -0.816295
0.011600 -0.085200 -0.596600 0.555036 0.159995 -0.816295
1.199800 -1.392900 -0.045000 -0.205856 -0.543940 0.813481
0.007100 -0.093400 0.522100 -0.205856 -0.543940 0.813481
0.011300 -0.945500 -0.046600 -0.205856 -0.543940 0.813481
0.922500 -0.399800 -0.038900 0.552510 0.149238 0.820037
0.007100 -0.093400 0.522100 0.552510 0.149238 0.820037
1.199800 -1.392900 -0.045000 0.552510 0.149238 0.820037
0.922500 -0.399800 -0.038900 0.401554 -0.342822 -0.849251
0.011600 -0.085200 -0.596600 0.401554 -0.342822 -0.849251
1.614500 0.389200 -0.030200 0.401554 -0.342822 -0.849251
0.922500 -0.399800 -0.038900 0.397770 -0.358182 0.844680
1.614500 0.389200 -0.030200 0.397770 -0.358182 0.844680
0.007100 -0.093400 0.522100 0.397770 -0.358182 0.844680
-1.168900 -1.398100 -0.054800 -0.562677 0.147506 0.813410
0.007100 -0.093400 0.522100 -0.562677 0.147506 0.813410
-0.896100 -0.403800 -0.046400 -0.562677 0.147506 0.813410
0.011300 -0.945500 -0.046600 0.202548 -0.542931 0.814985
0.007100 -0.093400 0.522100 0.202548 -0.542931 0.814985
-1.168900 -1.398100 -0.054800 0.202548 -0.542931 0.814985
-0.896100 -0.403800 -0.046400 -0.404689 -0.361132 0.840125
0.007100 -0.093400 0.522100 -0.404689 -0.361132 0.840125
-1.591600 0.382100 -0.043600 -0.404689 -0.361132 0.840125
0.007100 -0.093400 0.522100 0.472131 0.306080 0.826685
0.608100 0.480700 -0.033700 0.472131 0.306080 0.826685
0.006000 1.398100 -0.029500 0.472131 0.306080 0.826685
-0.585600 0.478100 -0.038700 -0.484231 0.303174 0.820735
0.007100 -0.093400 0.522100 -0.484231 0.303174 0.820735
0.006000 1.398100 -0.029500 -0.484231 0.303174 0.820735
1.614500 0.389200 -0.030200 0.057645 0.662601 0.746751
0.608100 0.480700 -0.033700 0.057645 0.662601 0.746751
0.007100 -0.093400 0.522100 0.057645 0.662601 0.746751
-1.591600 0.382100 -0.043600 -0.066867 0.662636 0.745950
0.007100 -0.093400 0.522100 -0.066867 0.662636 0.745950
-0.585600 0.478100 -0.038700 -0.066867 0.662636 0.745950
0.011300 -0.945500 -0.046600 0.207803 -0.526936 -0.824110
-1.168900 -1.398100 -0.054800 0.207803 -0.526936 -0.824110
0.011600 -0.085200 -0.596600 0.207803 -0.526936 -0.824110
-1.168900 -1.398100 -0.054800 -0.551865 0.158329 -0.818765
-0.896100 -0.403800 -0.046400 -0.551865 0.158329 -0.818765
0.011600 -0.085200 -0.596600 -0.551865 0.158329 -0.818765
-0.896100 -0.403800 -0.046400 -0.394497 -0.346086 -0.851232
-1.591600 0.382100 -0.043600 -0.394497 -0.346086 -0.851232
0.011600 -0.085200 -0.596600 -0.394497 -0.346086 -0.851232
-1.591600 0.382100 -0.043600 -0.060275 0.669427 -0.740428
-0.585600 0.478100 -0.038700 -0.060275 0.669427 -0.740428
0.011600 -0.085200 -0.596600 -0.060275 0.669427 -0.740428
-0.585600 0.478100 -0.038700 -0.473822 0.312920 -0.823148
0.006000 1.398100 -0.029500 -0.473822 0.312920 -0.823148
0.011600 -0.085200 -0.596600 -0.473822 0.312920 -0.823148
1.614500 0.389200 -0.030200 0.063435 0.669400 -0.740189
0.011600 -0.085200 -0.596600 0.063435 0.669400 -0.740189
0.608100 0.480700 -0.033700 0.063435 0.669400 -0.740189
0.011600 -0.085200 -0.596600 0.475368 0.315749 -0.821175
0.006000 1.398100 -0.029500 0.475368 0.315749 -0.821175
0.608100 0.480700 -0.033700 0.475368 0.315749 -0.821175
3 0 1 2
3 3 4 5
3 6 7 8
3 9 10 11
3 12 13 14
3 15 16 17
3 18 19 20
3 21 22 23
3 24 25 26
3 27 28 29
3 30 31 32
3 33 34 35
3 36 37 38
3 39 40 41
3 42 43 44
3 45 46 47
3 48 49 50
3 51 52 53
3 54 55 56
3 57 58 59
