ply
format ascii 1.0
comment VCGLIB generated
element vertex 384
property float x
property float y
property float z
element face 128
property list uchar int vertex_indices
end_header
7 0 0 
6.4142 -1.4142 -0 
5 -2 -0 
3.5858 -1.4142 -0 
3 0 0 
3.5858 1.4142 0 
5 2 0 
6.4142 1.4142 0 
4.9497 -0 4.9497 
4.5355 -1.4142 4.5355 
3.5355 -2 3.5355 
2.5355 -1.4142 2.5355 
2.1213 -0 2.1213 
2.5355 1.4142 2.5355 
3.5355 2 3.5355 
4.5355 1.4142 4.5355 
0 -0 7 
0 -1.4142 6.4142 
0 -2 5 
0 -1.4142 3.5858 
0 -0 3 
0 1.4142 3.5858 
0 2 5 
0 1.4142 6.4142 
-4.9497 -0 4.9497 
-4.5355 -1.4142 4.5355 
-3.5355 -2 3.5355 
-2.5355 -1.4142 2.5355 
-2.1213 -0 2.1213 
-2.5355 1.4142 2.5355 
-3.5355 2 3.5355 
-4.5355 1.4142 4.5355 
-7 0 0 
-6.4142 -1.4142 -0 
-5 -2 -0 
-3.5858 -1.4142 -0 
-3 0 0 
-3.5858 1.4142 0 
-5 2 0 
-6.4142 1.4142 0 
-4.9497 0 -4.9497 
-4.5355 -1.4142 -4.5355 
-3.5355 -2 -3.5355 
-2.5355 -1.4142 -2.5355 
-2.1213 0 -2.1213 
-2.5355 1.4142 -2.5355 
-3.5355 2 -3.5355 
-4.5355 1.4142 -4.5355 
0 0 -7 
0 -1.4142 -6.4142 
0 -2 -5 
0 -1.4142 -3.5858 
0 0 -3 
0 1.4142 -3.5858 
0 2 -5 
0 1.4142 -6.4142 
4.9497 0 -4.9497 
4.5355 -1.4142 -4.5355 
3.5355 -2 -3.5355 
2.5355 -1.4142 -2.5355 
2.1213 0 -2.1213 
2.5355 1.4142 -2.5355 
3.5355 2 -3.5355 
4.5355 1.4142 -4.5355 
7 0 0 
7 0 0 
7 0 0 
4.9497 0 -4.9497 
4.9497 0 -4.9497 
4.9497 0 -4.9497 
4.9497 0 -4.9497 
4.9497 0 -4.9497 
4.9497 0 -4.9497 
6.4142 1.4142 0 
6.4142 1.4142 0 
6.4142 1.4142 0 
6.4142 1.4142 0 
6.4142 1.4142 0 
6.4142 1.4142 0 
4.5355 1.4142 -4.5355 
4.5355 1.4142 -4.5355 
4.5355 1.4142 -4.5355 
4.5355 1.4142 -4.5355 
4.5355 1.4142 -4.5355 
4.5355 1.4142 -4.5355 
0 1.4142 -6.4142 
0 1.4142 -6.4142 
0 1.4142 -6.4142 
0 1.4142 -6.4142 
0 0 -7 
0 0 -7 
0 0 -7 
0 0 -7 
0 0 -7 
-4.9497 0 -4.9497 
-4.9497 0 -4.9497 
-4.9497 0 -4.9497 
-4.9497 0 -4.9497 
-4.9497 0 -4.9497 
-4.5355 1.4142 -4.5355 
-4.5355 1.4142 -4.5355 
-4.5355 1.4142 -4.5355 
-4.5355 1.4142 -4.5355 
-4.5355 1.4142 -4.5355 
-4.5355 1.4142 -4.5355 
-6.4142 1.4142 0 
-6.4142 1.4142 0 
-6.4142 1.4142 0 
-6.4142 1.4142 0 
-7 0 0 
-7 0 0 
-7 0 0 
-7 0 0 
-7 0 0 
-4.9497 -0 4.9497 
-4.9497 -0 4.9497 
-4.9497 -0 4.9497 
-4.9497 -0 4.9497 
-4.9497 -0 4.9497 
-4.5355 1.4142 4.5355 
-4.5355 1.4142 4.5355 
-4.5355 1.4142 4.5355 
-4.5355 1.4142 4.5355 
-4.5355 1.4142 4.5355 
-4.5355 1.4142 4.5355 
0 1.4142 6.4142 
0 1.4142 6.4142 
0 1.4142 6.4142 
0 1.4142 6.4142 
0 1.4142 6.4142 
0 -0 7 
0 -0 7 
0 -0 7 
0 -0 7 
0 -0 7 
4.9497 -0 4.9497 
4.9497 -0 4.9497 
4.9497 -0 4.9497 
4.9497 -0 4.9497 
4.9497 -0 4.9497 
4.9497 -0 4.9497 
4.5355 1.4142 4.5355 
4.5355 1.4142 4.5355 
4.5355 1.4142 4.5355 
5 2 0 
5 2 0 
5 2 0 
5 2 0 
3.5355 2 3.5355 
3.5355 2 3.5355 
3.5355 2 3.5355 
3.5355 2 3.5355 
3.5355 2 3.5355 
3.5355 2 3.5355 
3.5355 2 -3.5355 
3.5355 2 -3.5355 
3.5355 2 -3.5355 
3.5355 2 -3.5355 
3.5355 2 -3.5355 
0 2 -5 
0 2 -5 
0 2 -5 
0 2 -5 
0 2 -5 
0 2 -5 
-3.5355 2 -3.5355 
-3.5355 2 -3.5355 
-3.5355 2 -3.5355 
-3.5355 2 -3.5355 
-5 2 0 
-5 2 0 
-5 2 0 
-5 2 0 
-5 2 0 
-5 2 0 
-3.5355 2 3.5355 
-3.5355 2 3.5355 
-3.5355 2 3.5355 
-3.5355 2 3.5355 
0 2 5 
0 2 5 
0 2 5 
0 2 5 
0 2 5 
2.5355 1.4142 2.5355 
2.5355 1.4142 2.5355 
2.5355 1.4142 2.5355 
2.5355 1.4142 2.5355 
2.5355 1.4142 2.5355 
2.5355 1.4142 2.5355 
2.1213 -0 2.1213 
2.1213 -0 2.1213 
2.1213 -0 2.1213 
2.1213 -0 2.1213 
2.1213 -0 2.1213 
2.5355 -1.4142 2.5355 
2.5355 -1.4142 2.5355 
2.5355 -1.4142 2.5355 
2.5355 -1.4142 2.5355 
2.5355 -1.4142 2.5355 
3.5355 -2 3.5355 
3.5355 -2 3.5355 
3.5355 -2 3.5355 
3.5355 -2 3.5355 
3.5355 -2 3.5355 
4.5355 -1.4142 4.5355 
4.5355 -1.4142 4.5355 
4.5355 -1.4142 4.5355 
4.5355 -1.4142 4.5355 
6.4142 -1.4142 -0 
6.4142 -1.4142 -0 
6.4142 -1.4142 -0 
6.4142 -1.4142 -0 
6.4142 -1.4142 -0 
6.4142 -1.4142 -0 
4.5355 -1.4142 -4.5355 
4.5355 -1.4142 -4.5355 
4.5355 -1.4142 -4.5355 
4.5355 -1.4142 -4.5355 
4.5355 -1.4142 -4.5355 
0 -1.4142 -6.4142 
0 -1.4142 -6.4142 
0 -1.4142 -6.4142 
0 -1.4142 -6.4142 
0 -1.4142 -6.4142 
-4.5355 -1.4142 -4.5355 
-4.5355 -1.4142 -4.5355 
-4.5355 -1.4142 -4.5355 
-4.5355 -1.4142 -4.5355 
-4.5355 -1.4142 -4.5355 
-6.4142 -1.4142 -0 
-6.4142 -1.4142 -0 
-6.4142 -1.4142 -0 
-6.4142 -1.4142 -0 
-6.4142 -1.4142 -0 
-4.5355 -1.4142 4.5355 
-4.5355 -1.4142 4.5355 
-4.5355 -1.4142 4.5355 
-4.5355 -1.4142 4.5355 
-4.5355 -1.4142 4.5355 
0 -1.4142 6.4142 
0 -1.4142 6.4142 
0 -1.4142 6.4142 
0 -1.4142 6.4142 
0 -1.4142 6.4142 
5 -2 -0 
5 -2 -0 
5 -2 -0 
5 -2 -0 
5 -2 -0 
3.5355 -2 -3.5355 
3.5355 -2 -3.5355 
3.5355 -2 -3.5355 
3.5355 -2 -3.5355 
3.5355 -2 -3.5355 
0 -2 -5 
0 -2 -5 
0 -2 -5 
0 -2 -5 
0 -2 -5 
-3.5355 -2 -3.5355 
-3.5355 -2 -3.5355 
-3.5355 -2 -3.5355 
-3.5355 -2 -3.5355 
-3.5355 -2 -3.5355 
-5 -2 -0 
-5 -2 -0 
-5 -2 -0 
-5 -2 -0 
-5 -2 -0 
-3.5355 -2 3.5355 
-3.5355 -2 3.5355 
-3.5355 -2 3.5355 
-3.5355 -2 3.5355 
-3.5355 -2 3.5355 
0 -2 5 
0 -2 5 
0 -2 5 
0 -2 5 
0 -2 5 
3.5858 -1.4142 -0 
3.5858 -1.4142 -0 
3.5858 -1.4142 -0 
3.5858 -1.4142 -0 
3.5858 -1.4142 -0 
2.5355 -1.4142 -2.5355 
2.5355 -1.4142 -2.5355 
2.5355 -1.4142 -2.5355 
2.5355 -1.4142 -2.5355 
2.5355 -1.4142 -2.5355 
0 -1.4142 -3.5858 
0 -1.4142 -3.5858 
0 -1.4142 -3.5858 
0 -1.4142 -3.5858 
0 -1.4142 -3.5858 
-2.5355 -1.4142 -2.5355 
-2.5355 -1.4142 -2.5355 
-2.5355 -1.4142 -2.5355 
-2.5355 -1.4142 -2.5355 
-2.5355 -1.4142 -2.5355 
-3.5858 -1.4142 -0 
-3.5858 -1.4142 -0 
-3.5858 -1.4142 -0 
-3.5858 -1.4142 -0 
-3.5858 -1.4142 -0 
-2.5355 -1.4142 2.5355 
-2.5355 -1.4142 2.5355 
-2.5355 -1.4142 2.5355 
-2.5355 -1.4142 2.5355 
-2.5355 -1.4142 2.5355 
0 -1.4142 3.5858 
0 -1.4142 3.5858 
0 -1.4142 3.5858 
0 -1.4142 3.5858 
0 -1.4142 3.5858 
0 -0 3 
0 -0 3 
0 -0 3 
0 -0 3 
0 -0 3 
-2.1213 -0 2.1213 
-2.1213 -0 2.1213 
-2.1213 -0 2.1213 
-2.1213 -0 2.1213 
-2.1213 -0 2.1213 
-3 0 0 
-3 0 0 
-3 0 0 
-3 0 0 
-3 0 0 
-2.1213 0 -2.1213 
-2.1213 0 -2.1213 
-2.1213 0 -2.1213 
-2.1213 0 -2.1213 
-2.1213 0 -2.1213 
0 0 -3 
0 0 -3 
0 0 -3 
0 0 -3 
0 0 -3 
2.1213 0 -2.1213 
2.1213 0 -2.1213 
2.1213 0 -2.1213 
2.1213 0 -2.1213 
2.1213 0 -2.1213 
3 0 0 
3 0 0 
3 0 0 
3 0 0 
3 0 0 
0 1.4142 3.5858 
0 1.4142 3.5858 
0 1.4142 3.5858 
0 1.4142 3.5858 
0 1.4142 3.5858 
-2.5355 1.4142 2.5355 
-2.5355 1.4142 2.5355 
-2.5355 1.4142 2.5355 
-2.5355 1.4142 2.5355 
-2.5355 1.4142 2.5355 
-3.5858 1.4142 0 
-3.5858 1.4142 0 
-3.5858 1.4142 0 
-3.5858 1.4142 0 
-3.5858 1.4142 0 
-2.5355 1.4142 -2.5355 
-2.5355 1.4142 -2.5355 
-2.5355 1.4142 -2.5355 
-2.5355 1.4142 -2.5355 
-2.5355 1.4142 -2.5355 
0 1.4142 -3.5858 
0 1.4142 -3.5858 
0 1.4142 -3.5858 
0 1.4142 -3.5858 
0 1.4142 -3.5858 
2.5355 1.4142 -2.5355 
2.5355 1.4142 -2.5355 
2.5355 1.4142 -2.5355 
3.5858 1.4142 0 
3.5858 1.4142 0 
3.5858 1.4142 0 
3.5858 1.4142 0 
3.5858 1.4142 0 
3.5858 1.4142 0 
3 74 68 79 
3 90 82 69 
3 87 95 99 
3 110 102 96 
3 107 115 119 
3 131 122 116 
3 127 136 141 
3 73 137 65 
3 75 148 142 
3 145 81 154 
3 159 80 86 
3 161 101 165 
3 169 100 106 
3 171 121 175 
3 179 120 126 
3 128 150 181 
3 138 211 66 
3 70 210 215 
3 71 222 92 
3 91 227 94 
3 97 232 112 
3 111 237 114 
3 117 242 133 
3 132 206 135 
3 202 243 276 
3 236 278 240 
3 231 272 235 
3 226 267 230 
3 221 262 225 
3 216 257 220 
3 217 246 250 
3 201 209 205 
3 197 277 311 
3 271 312 275 
3 266 307 270 
3 261 302 265 
3 256 297 260 
3 251 292 255 
3 252 281 285 
3 196 245 200 
3 191 280 195 
3 287 345 341 
3 286 337 290 
3 291 332 295 
3 296 327 300 
3 301 322 305 
3 306 317 310 
3 192 313 315 
3 151 379 184 
3 157 380 146 
3 156 371 375 
3 162 366 370 
3 167 361 365 
3 172 356 360 
3 177 351 355 
3 182 186 350 
3 187 318 352 
3 320 353 316 
3 325 357 321 
3 330 362 326 
3 335 367 331 
3 340 372 336 
3 342 378 376 
3 185 346 190 
3 77 64 67 
3 89 85 84 
3 88 93 98 
3 109 105 104 
3 108 113 118 
3 130 125 124 
3 129 134 140 
3 7 143 139 
3 76 144 149 
3 147 78 83 
3 160 155 63 
3 163 55 103 
3 170 166 47 
3 173 39 123 
3 180 176 31 
3 23 15 152 
3 8 208 214 
3 72 0 213 
3 56 218 223 
3 48 224 228 
3 40 229 233 
3 32 234 238 
3 24 239 244 
3 16 241 207 
3 204 9 17 
3 25 274 18 
3 33 269 273 
3 41 264 268 
3 49 259 263 
3 57 253 258 
3 219 212 247 
3 10 2 1 
3 199 203 279 
3 26 309 19 
3 34 304 308 
3 42 299 303 
3 50 294 298 
3 58 288 293 
3 254 248 282 
3 11 284 249 
3 12 347 283 
3 289 3 4 
3 59 343 338 
3 51 339 333 
3 43 334 328 
3 35 329 323 
3 27 324 20 
3 194 198 314 
3 153 6 382 
3 62 377 383 
3 158 164 373 
3 54 168 368 
3 46 174 363 
3 38 178 358 
3 30 22 354 
3 183 14 188 
3 189 193 319 
3 28 359 21 
3 36 364 29 
3 44 369 37 
3 52 374 45 
3 60 61 53 
3 344 348 381 
3 13 5 349 
