ply
format ascii 1.0
comment VCGLIB generated
element vertex 24
property float x
property float y
property float z
element face 22
property list uchar int vertex_indices
end_header
0 0 0
-2 -4 0
-0.5 -4 0
1 -1 0
2.5 -4 0
4 -4 0
2 0 0
4 4 0
2.5 4 0
1 1 0
-0.5 4 0
-2 4 0
0 0 1.5
-2 -4 1.5
-0.5 -4 1.5
1 -1 1.5
2.5 -4 1.5
4 -4 1.5
2 0 1.5
4 4 1.5
2.5 4 1.5
1 1 1.5
-0.5 4 1.5
-2 4 1.5
4 0 1 2 3
4 3 4 5 6
4 6 7 8 9
4 9 10 11 0
4 0 3 6 9
4 12 13 14 15
4 15 16 17 18
4 18 19 20 21
4 21 22 23 12
4 12 15 18 21
4 0 12 23 11
4 1 13 12 0
4 1 13 14 2
4 2 14 15 3
4 3 15 16 4
4 4 16 17 5
4 5 17 18 6
4 6 18 19 7
4 7 19 20 8
4 8 20 21 9
4 9 21 22 10
4 10 22 23 11