ply
format ascii 1.0
comment VCGLIB generated
element vertex 24
property float x
property float y
property float z
element face 44
property list uchar int vertex_indices
end_header
-19.93118 -44.74593 7.500008 
-11.01859 1.953438 7.500008 
-41.60208 -44.74593 7.500008 
-17.61139 44.74593 7.500008 
-38.73297 44.74594 7.500008 
0.3358154 15.99377 7.5 
38.8551 44.74591 7.499989 
17.91669 44.74591 7.5 
11.01859 1.28194 7.5 
19.80911 -44.74594 7.5 
41.60208 -44.74594 7.499989 
-0.03048706 -13.79616 7.5 
-41.60208 -44.74593 -7.499992 
-11.01859 1.953438 -7.5 
-19.93118 -44.74593 -7.5 
-38.73297 44.74594 -7.499992 
-17.61148 44.74593 -7.5 
17.91669 44.74591 -7.5 
38.8551 44.74591 -7.500011 
0.3358154 15.99377 -7.5 
11.01859 1.28194 -7.5 
41.60208 -44.74594 -7.500011 
19.80911 -44.74594 -7.5 
-0.03048706 -13.79616 -7.5 
3 0 1 2 
3 0 2 12 
3 0 12 14 
3 11 0 14 
3 11 14 23 
3 9 11 23 
3 9 23 22 
3 10 9 22 
3 10 22 21 
3 8 10 21 
3 8 21 20 
3 6 8 20 
3 6 20 18 
3 7 6 18 
3 7 18 17 
3 5 7 17 
3 5 17 19 
3 3 5 19 
3 3 19 16 
3 4 3 16 
3 4 16 15 
3 1 4 15 
3 1 15 13 
3 15 16 13 
3 13 16 23 
3 1 3 4 
3 11 3 1 
3 23 16 19 
3 5 3 11 
3 17 18 19 
3 5 6 7 
3 18 20 19 
3 20 22 19 
3 5 8 6 
3 5 9 8 
3 21 22 20 
3 8 9 10 
3 22 23 19 
3 5 11 9 
3 14 13 23 
3 12 13 14 
3 2 13 12 
3 2 1 13 
3 11 1 0 
