ply
format ascii 1.0
comment VCGLIB generated
element vertex 47
property float x
property float y
property float z
element face 90
property list uchar int vertex_indices
end_header
-8.375801 -9.320335 1.027654 
-8.375824 9.320301 1.027496 
-8.374214 -9.32032 3.086656 
-8.374237 9.320316 3.086498 
-8.280483 -9.116959 3.263004 
-8.2805 9.118549 3.262849 
-8.093008 -9.646027 1.027658 
-8.093029 9.647583 1.027494 
-8.046936 -9.544327 3.263008 
-8.046959 9.545921 3.262846 
-4.971151 -7.385216 5.0821 
-4.918739 7.556847 5.102627 
-4.809101 -7.709316 5.075748 
-4.548561 7.731606 4.978705 
-3.600065 -9.571331 3.11209 
-3.600088 9.572937 3.111928 
-3.590528 -9.58247 1.027668 
-3.590551 9.584038 1.027506 
-2.615057 -0.0007858276 3.043695 
-2.475248 -0.0008049011 0.9290887 
3.814697e-06 -4.06636 3.048503 
5.722046e-06 -3.931335 0.9529594 
-3.814697e-06 -0.2708511 5.094762 
-3.814697e-06 0.4869728 5.048683 
0 3.9758 0.9767234 
-3.814697e-06 4.061607 3.056378 
0.01747131 -0.0007667542 5.112236 
0.3542862 -0.0007667542 5.024857 
2.588051 -0.0007820129 3.091371 
2.610294 -0.0007972717 1.045079 
3.744646 9.666656 1.027524 
3.749429 -9.653942 3.112109 
3.749407 9.653969 3.111946 
3.778028 -9.569752 0.9244196 
4.809092 7.690308 5.085175 
4.828173 -7.836411 4.999515 
5.068074 -7.477356 5.050353 
8.094619 -9.644405 3.086701 
8.094596 9.64444 3.086538 
8.09619 9.647598 1.027536 
8.272561 -9.514141 1.027699 
8.280499 -9.11694 3.263046 
8.28048 9.118572 3.262892 
8.390123 -9.101055 3.086697 
8.390105 9.101093 3.086543 
8.393301 -9.10107 1.027695 
8.393283 9.101078 1.027541 
3 32 34 38 
3 11 9 5 
3 17 19 1 
3 13 9 11 
3 18 26 11 
3 41 43 28 
3 42 44 38 
3 28 44 42 
3 45 40 33 
3 24 30 29 
3 11 23 13 
3 27 26 36 
3 28 34 27 
3 35 37 36 
3 44 28 46 
3 9 3 5 
3 4 2 8 
3 26 23 11 
3 36 37 41 
3 9 7 3 
3 35 36 22 
3 23 26 34 
3 34 28 42 
3 0 19 16 
3 27 34 26 
3 43 37 40 
3 3 7 1 
3 10 12 22 
3 1 5 3 
3 21 24 29 
3 34 42 38 
3 21 16 19 
3 24 19 17 
3 22 36 26 
3 24 21 19 
3 40 45 43 
3 29 46 28 
3 18 10 26 
3 45 29 43 
3 36 41 28 
3 31 37 35 
3 39 44 46 
3 44 39 38 
3 10 4 8 
3 45 33 29 
3 26 10 22 
3 5 1 18 
3 11 5 18 
3 37 43 41 
3 6 16 14 
3 14 8 6 
3 33 40 37 
3 37 31 33 
3 20 16 21 
3 16 20 14 
3 19 18 1 
3 33 31 21 
3 20 21 31 
3 0 6 8 
3 13 25 15 
3 29 28 43 
3 25 13 23 
3 28 27 36 
3 20 12 14 
3 7 9 17 
3 15 17 9 
3 30 32 39 
3 38 39 32 
3 24 25 30 
3 32 30 25 
3 15 24 17 
3 0 4 19 
3 24 15 25 
3 20 22 12 
3 0 8 2 
3 25 34 32 
3 30 39 46 
3 8 14 12 
3 1 7 17 
3 18 19 4 
3 35 20 31 
3 21 29 33 
3 9 13 15 
3 0 2 4 
3 25 23 34 
3 12 10 8 
3 46 29 30 
3 16 6 0 
3 20 35 22 
3 10 18 4 
